<?xml version="1.0" standalone="no"?>
<!DOCTYPE svg PUBLIC "-//W3C//DTD SVG 20010904//EN"
 "http://www.w3.org/TR/2001/REC-SVG-20010904/DTD/svg10.dtd">
<svg version="1.0" xmlns="http://www.w3.org/2000/svg"
 width="2048.000000pt" height="2048.000000pt" viewBox="0 0 2048.000000 2048.000000"
 preserveAspectRatio="xMidYMid meet">

<g transform="translate(0.000000,2048.000000) scale(0.100000,-0.100000)"
fill="#000000" stroke="none">
<path d="M12140 14820 c8 -5 20 -10 25 -10 6 0 3 5 -5 10 -8 5 -19 10 -25 10
-5 0 -3 -5 5 -10z"/>
<path d="M12130 14795 c0 -9 5 -13 10 -10 11 7 14 -18 3 -28 -7 -8 -5 -132 3
-160 3 -9 10 -14 16 -11 5 4 4 -4 -3 -17 -8 -13 -14 -54 -14 -90 l0 -65 25 32
c14 17 31 40 38 50 12 18 13 18 7 -1 -3 -13 8 -6 32 21 56 61 75 88 63 92 -5
2 -10 11 -10 20 -1 20 -30 62 -30 43 0 -7 -4 -10 -9 -7 -5 3 -7 16 -3 28 3 14
1 19 -6 14 -6 -3 -13 3 -17 14 -3 11 -11 20 -16 20 -6 0 -8 -4 -4 -10 3 -5 -4
-19 -16 -31 -22 -22 -22 -21 -4 24 3 6 -4 18 -15 25 -17 10 -20 10 -20 -5 0
-9 -3 -14 -6 -10 -3 3 -3 15 1 26 6 19 8 19 21 6 14 -14 34 -20 34 -11 0 2
-18 15 -40 30 -32 21 -40 23 -40 11z m35 -115 c3 -5 1 -10 -4 -10 -6 0 -11 5
-11 10 0 6 2 10 4 10 3 0 8 -4 11 -10z m33 -22 c-8 -13 -18 -23 -25 -21 -7 3
-3 13 10 27 27 27 31 26 15 -6z m92 -36 c0 -28 -26 -86 -45 -102 -10 -8 -13
-6 -11 7 0 10 6 21 11 25 6 5 6 8 -2 8 -9 0 -8 12 4 43 17 47 43 59 43 19z"/>
<path d="M12260 14606 c-12 -33 -13 -46 -1 -46 9 0 24 60 16 68 -2 3 -9 -7
-15 -22z"/>
<path d="M8753 14750 c1 -30 6 -58 10 -61 4 -3 3 -25 -2 -50 -11 -49 -6 -65 8
-28 l10 24 1 -25 c1 -14 4 -19 7 -12 3 7 2 20 -2 30 -4 9 -9 40 -11 67 -2 28
-8 64 -13 80 -8 26 -9 22 -8 -25z"/>
<path d="M12110 14757 c0 -26 4 -47 9 -47 9 0 7 77 -3 87 -3 3 -6 -15 -6 -40z"/>
<path d="M8701 14769 c-18 -11 -30 -23 -26 -27 4 -4 10 -1 12 6 3 6 17 11 31
11 23 -2 24 -2 5 -6 -12 -2 -32 -15 -45 -28 -13 -14 -28 -25 -34 -25 -12 0
-29 -29 -25 -44 1 -5 -5 -6 -13 -3 -19 8 -13 -32 9 -50 8 -7 10 -8 5 -1 -13
16 -13 39 1 36 6 -2 13 5 14 15 5 27 15 34 15 10 0 -11 -3 -23 -7 -26 -3 -4
-7 -21 -7 -37 l-1 -31 18 22 c19 24 21 21 7 -15 -8 -23 -4 -33 48 -90 l57 -63
8 41 c5 31 2 52 -13 89 -12 26 -18 53 -14 59 4 6 3 8 -3 5 -6 -4 -13 0 -17 8
-3 8 0 14 6 12 13 -2 21 103 10 133 -7 19 -8 19 -41 -1z m39 -45 c0 -8 -4 -12
-10 -9 -6 4 -7 -5 -4 -23 3 -16 1 -32 -4 -36 -6 -3 -8 2 -5 13 3 10 -1 29 -7
41 -7 13 -8 20 -2 16 6 -3 13 -2 17 4 9 15 15 12 15 -6z m-46 -194 c13 -27 13
-30 2 -15 -9 11 -20 25 -25 31 -5 7 -7 15 -4 18 8 7 7 9 27 -34z"/>
<path d="M8787 14709 c4 -13 8 -18 11 -10 2 7 -1 18 -6 23 -8 8 -9 4 -5 -13z"/>
<path d="M8760 14571 c0 -10 19 -25 25 -20 1 2 -3 10 -11 17 -8 7 -14 8 -14 3z"/>
<path d="M9410 13626 c0 -2 8 -10 18 -17 15 -13 16 -12 3 4 -13 16 -21 21 -21
13z"/>
<path d="M9552 13494 c10 -10 20 -16 22 -13 3 3 -5 11 -17 18 -21 13 -21 12
-5 -5z"/>
<path d="M11265 13425 c-27 -24 -45 -44 -40 -44 6 -1 30 20 54 44 57 57 50 57
-14 0z"/>
<path d="M9620 13442 c0 -12 22 -32 35 -32 5 0 2 5 -8 11 -9 6 -15 14 -12 20
4 5 1 9 -4 9 -6 0 -11 -4 -11 -8z"/>
<path d="M9675 13401 c-3 -5 -1 -12 5 -16 5 -3 10 1 10 9 0 18 -6 21 -15 7z"/>
<path d="M9700 13369 c0 -5 5 -7 10 -4 6 3 10 8 10 11 0 2 -4 4 -10 4 -5 0
-10 -5 -10 -11z"/>
<path d="M9720 13356 c0 -2 8 -10 18 -17 15 -13 16 -12 3 4 -13 16 -21 21 -21
13z"/>
<path d="M11160 13335 c-7 -8 -20 -13 -29 -11 -22 7 -47 -15 -47 -41 0 -16 4
-19 16 -13 29 17 84 69 79 75 -4 3 -12 -1 -19 -10z m-30 -24 c0 -5 -7 -12 -16
-15 -14 -5 -15 -4 -4 9 14 17 20 19 20 6z"/>
<path d="M9760 13327 c0 -18 172 -175 186 -170 16 6 19 33 4 33 -5 0 -10 -4
-10 -10 0 -5 -7 -7 -15 -4 -8 4 -15 10 -15 16 0 5 4 7 9 4 4 -3 17 1 27 10 18
14 18 15 -3 4 -16 -7 -23 -7 -23 0 0 5 5 10 11 10 5 0 7 5 3 11 -3 6 -9 7 -13
3 -5 -8 -15 -9 -46 -5 -5 1 -3 6 5 12 13 9 12 10 -3 5 -15 -5 -84 44 -109 79
-4 6 -8 6 -8 2z"/>
<path d="M11040 13251 c0 -5 -8 -8 -17 -6 -10 1 -12 0 -5 -2 18 -7 14 -20 -8
-26 -12 -3 -18 -11 -15 -19 7 -18 -20 -44 -30 -28 -3 5 -12 10 -18 10 -7 0 -3
-7 7 -15 11 -8 14 -15 8 -15 -7 0 -12 -10 -13 -22 0 -13 -3 -17 -6 -10 -2 6
-9 12 -15 12 -6 0 -5 -6 2 -15 10 -12 16 -13 26 -4 8 6 14 17 14 23 0 6 12 22
25 35 14 12 22 27 19 33 -3 5 2 8 12 6 13 -2 19 4 20 25 2 15 1 27 -2 27 -2 0
-4 -4 -4 -9z"/>
<path d="M10967 13217 c-3 -8 -1 -20 5 -28 8 -11 9 -11 5 2 -3 9 0 22 6 28 8
8 8 11 0 11 -6 0 -13 -6 -16 -13z"/>
<path d="M10935 13200 c3 -5 8 -10 11 -10 2 0 4 5 4 10 0 6 -5 10 -11 10 -5 0
-7 -4 -4 -10z"/>
<path d="M9980 13181 c5 -11 20 -27 33 -36 21 -16 21 -17 1 -11 -15 5 -24 1
-28 -10 -5 -14 -4 -15 8 -5 9 8 16 8 20 2 4 -5 2 -12 -4 -16 -5 -3 -10 -13
-10 -21 0 -12 4 -12 20 -4 10 6 17 17 14 24 -7 17 12 30 22 15 4 -8 9 -7 15 2
7 11 9 10 9 -3 0 -10 14 -22 35 -29 35 -13 51 -35 17 -25 -18 6 -62 -25 -62
-44 0 -26 13 -37 38 -32 15 3 25 2 22 -1 -3 -3 -17 -7 -30 -9 -14 -2 -35 -9
-47 -16 -15 -8 -23 -9 -23 -2 0 5 -5 10 -11 10 -5 0 -7 -4 -4 -10 7 -12 -32
-12 -60 0 -17 7 -17 9 -2 9 10 1 17 9 17 21 0 22 15 27 23 8 3 -7 6 -8 6 -3 0
6 -4 17 -9 25 -9 13 -12 12 -22 -4 -6 -11 -27 -35 -47 -53 -20 -18 -31 -33
-24 -33 7 0 16 7 20 15 6 10 13 11 23 5 13 -8 13 -10 -1 -10 -9 0 -19 -6 -22
-14 -4 -10 0 -12 14 -9 11 3 22 9 25 14 3 5 13 9 22 9 11 -1 6 -7 -13 -17 -16
-8 -38 -22 -47 -30 -9 -8 -21 -12 -26 -9 -12 7 -52 -22 -52 -38 0 -17 -38 -51
-47 -43 -3 4 -1 7 6 7 7 0 9 5 6 10 -8 13 -18 13 -36 -2 -8 -7 -13 -12 -11
-11 2 1 10 -3 16 -10 10 -9 0 -25 -45 -72 -32 -33 -69 -73 -83 -90 -14 -16
-26 -25 -26 -18 0 6 5 15 10 18 6 4 8 11 5 16 -7 10 16 37 36 41 25 6 49 32
37 39 -13 8 6 39 24 39 6 0 5 -7 -2 -15 -11 -13 -10 -14 4 -9 18 7 19 13 8 32
-6 9 -14 6 -31 -12 -14 -15 -20 -30 -15 -37 5 -9 2 -10 -12 -5 -10 4 -16 4
-12 1 3 -4 -11 -23 -33 -42 -28 -26 -38 -41 -34 -54 7 -21 -11 -27 -18 -6 -2
6 -11 -1 -19 -18 -9 -17 -26 -39 -37 -49 -16 -15 -18 -21 -9 -27 10 -7 10 -11
0 -21 -6 -6 -12 -17 -12 -22 0 -6 7 -1 15 11 8 12 13 27 12 35 -2 7 -2 10 0 6
10 -17 24 -7 18 12 -4 11 -2 20 4 20 6 0 11 7 11 15 0 8 4 15 9 15 15 0 19
-24 7 -37 -6 -6 -35 -45 -65 -87 -38 -53 -58 -73 -69 -68 -11 4 -12 7 -4 10 7
2 12 11 12 20 0 15 2 15 10 2 7 -12 10 -11 16 5 4 11 12 23 18 27 7 5 7 8 -2
8 -10 0 -10 5 -2 20 18 34 4 22 -24 -20 -44 -67 -66 -110 -56 -110 5 0 14 8
19 18 7 12 10 13 11 3 0 -25 -40 -80 -55 -74 -8 3 -12 10 -9 17 3 6 -2 2 -10
-8 -19 -23 -20 -42 -5 -51 6 -5 4 -12 -8 -20 -10 -7 -21 -11 -24 -9 -3 2 -25
-13 -47 -34 -36 -34 -41 -44 -48 -100 -3 -34 -10 -62 -14 -62 -14 0 -20 -32
-9 -46 9 -12 9 -13 -3 -9 -9 4 -18 -1 -22 -10 -3 -9 -2 -13 3 -10 5 3 12 1 16
-5 3 -5 1 -10 -4 -10 -6 0 -11 -10 -11 -23 0 -13 -7 -32 -15 -43 -8 -10 -15
-28 -15 -39 0 -17 -2 -18 -10 -5 -9 13 -12 12 -25 -4 -8 -11 -15 -25 -15 -30
0 -6 4 -5 9 2 7 11 9 11 14 -2 3 -8 3 -16 -1 -18 -4 -2 -17 -30 -28 -63 -12
-33 -32 -89 -46 -125 -13 -36 -33 -96 -43 -133 -10 -37 -21 -63 -25 -58 -3 6
-6 -6 -6 -26 0 -20 -5 -38 -11 -40 -7 -3 -9 -11 -6 -19 3 -8 0 -14 -6 -14 -6
0 -8 -6 -5 -14 3 -8 0 -31 -6 -53 -6 -21 -14 -52 -16 -70 -16 -97 -14 -100
-148 248 -71 184 -155 399 -186 479 -31 80 -108 278 -171 442 -62 163 -115
295 -117 293 -1 -1 4 -31 13 -67 11 -51 12 -73 4 -97 -13 -36 2 -135 27 -183
10 -20 11 -34 4 -54 -8 -19 -8 -30 0 -38 7 -7 10 -5 10 8 0 9 5 14 10 11 8 -5
7 -11 0 -20 -14 -17 -3 -101 16 -130 13 -19 14 -18 14 7 0 15 4 30 10 33 12 7
1 -55 -13 -72 -5 -7 -6 -29 -2 -50 6 -34 8 -35 18 -18 6 11 10 42 9 70 -1 27
1 43 5 35 3 -8 12 -27 20 -42 8 -17 9 -28 3 -28 -5 0 -10 7 -10 17 0 9 -2 14
-5 11 -4 -3 -3 -18 1 -33 5 -20 9 -23 15 -13 7 10 9 9 9 -4 0 -10 -4 -18 -10
-18 -5 0 -2 -15 8 -34 9 -19 20 -32 23 -30 3 1 5 -5 5 -14 -1 -9 3 -17 7 -17
13 0 39 -54 32 -65 -3 -6 -2 -10 2 -10 5 0 14 -9 21 -21 8 -12 9 -18 2 -14 -6
3 5 -22 24 -57 40 -74 189 -431 327 -783 11 -30 12 -29 40 55 15 47 28 95 29
108 0 13 4 21 9 18 10 -6 23 35 18 56 -2 7 -2 10 0 5 7 -11 23 2 23 19 0 8 -5
12 -10 9 -12 -7 -7 19 17 102 9 29 20 50 25 47 6 -4 8 1 4 13 -6 18 52 201 72
226 5 7 12 26 16 42 4 17 15 39 24 49 9 11 11 16 4 12 -7 -5 7 30 31 77 25 47
42 88 39 92 -4 3 1 3 11 -1 9 -3 17 -10 17 -15 0 -5 5 -9 10 -9 6 0 8 11 4 28
-4 18 -3 24 3 17 15 -15 25 -65 13 -65 -5 0 -10 -8 -10 -17 0 -16 -2 -16 -11
-3 -8 11 -9 9 -3 -10 6 -22 5 -23 -10 -11 -12 10 -15 23 -11 45 l6 31 -17 -29
c-9 -15 -17 -40 -18 -55 -4 -36 -17 -71 -26 -71 -5 0 -6 -12 -3 -27 2 -16 4
-39 5 -53 l0 -25 14 25 c15 28 20 65 5 41 -7 -10 -10 -10 -16 -1 -4 7 -3 15 1
19 5 3 18 25 28 49 14 31 24 41 36 37 11 -4 22 7 38 40 12 25 18 45 14 45 -5
0 -9 6 -10 13 0 6 -4 23 -8 37 -6 24 -6 24 9 5 9 -11 17 -27 17 -35 0 -12 2
-12 13 -1 10 11 10 14 0 18 -15 6 -17 39 -3 48 6 3 10 2 10 -3 0 -5 12 -12 28
-15 15 -3 59 -15 97 -26 49 -14 102 -20 176 -20 l107 -1 6 -35 c6 -29 65 -253
81 -306 3 -10 -22 -51 -63 -105 -38 -49 -94 -129 -125 -177 -68 -109 -80 -165
-75 -369 2 -110 -1 -161 -14 -220 -46 -201 3 -540 103 -715 17 -30 58 -84 91
-119 l60 -63 -47 -178 c-26 -98 -78 -293 -115 -433 -37 -140 -118 -446 -180
-680 -70 -264 -118 -429 -128 -436 -8 -6 -12 -16 -8 -22 4 -6 0 -27 -8 -47
-16 -38 -16 -37 -16 -60 0 -24 -20 -17 -21 8 -1 21 -1 21 -9 -3 -7 -22 -8 -20
-10 15 -1 22 -5 51 -9 65 -6 23 -8 23 -14 6 -4 -11 -3 -24 3 -30 5 -5 10 -27
10 -48 0 -26 4 -38 14 -38 19 0 29 -17 20 -31 -4 -8 -9 -7 -15 2 -14 23 -19 4
-5 -22 7 -14 11 -39 9 -55 -5 -29 14 -117 84 -389 19 -77 52 -214 73 -305 21
-91 49 -208 63 -260 25 -98 48 -202 68 -305 22 -116 42 -129 125 -78 32 20 61
40 64 43 3 3 40 28 82 54 42 26 92 60 110 77 18 16 38 29 43 29 6 0 26 15 45
33 19 18 61 53 94 78 32 24 73 55 91 69 140 107 361 324 501 492 41 48 152
223 188 295 19 39 45 105 56 145 13 46 28 79 42 89 l22 17 -27 32 c-16 18 -27
44 -27 61 0 28 -15 40 -22 18 -2 -6 -16 6 -30 27 -24 34 -25 39 -11 49 20 15
10 47 -11 39 -13 -5 -14 0 -6 25 7 27 6 31 -11 31 -10 0 -28 9 -39 20 -28 28
-34 25 -14 -9 10 -17 23 -27 31 -24 12 5 14 0 17 -36 1 -8 10 -17 20 -21 14
-5 16 -9 7 -14 -13 -8 -41 10 -41 26 0 6 -14 27 -30 48 -20 25 -28 44 -23 56
4 12 3 15 -5 10 -9 -6 -9 -1 0 18 6 14 16 26 21 26 5 0 4 -7 -3 -15 -7 -9 -10
-18 -6 -22 8 -8 12 -3 20 25 10 30 -16 30 -37 0 -14 -20 -16 -21 -16 -5 -1 10
-5 16 -9 13 -5 -3 -29 35 -55 84 -47 88 -50 105 -22 140 16 20 5 112 -14 118
-8 3 -11 0 -8 -5 3 -5 0 -10 -8 -10 -17 0 -21 42 -5 52 6 3 10 13 10 21 0 20
-20 17 -21 -3 0 -12 -2 -13 -6 -5 -3 7 0 19 6 26 9 10 6 13 -11 12 -14 -1 -24
-8 -26 -21 -2 -11 -8 -24 -14 -30 -6 -7 -7 0 -2 20 4 17 11 32 16 33 4 2 8 12
8 23 0 12 7 19 20 19 11 0 20 4 20 9 0 5 3 17 7 27 4 11 3 15 -4 11 -6 -4 -14
-1 -16 5 -3 8 -6 5 -6 -6 -1 -10 -9 -26 -19 -35 -11 -9 -21 -23 -24 -31 -3 -8
-6 9 -5 38 0 40 4 52 14 48 14 -6 16 3 7 28 -3 8 -11 13 -18 10 -10 -4 -15 15
-20 68 -6 60 -12 78 -34 101 -26 27 -26 30 -27 170 0 119 3 146 18 167 9 13
17 30 17 37 0 17 -30 17 -30 1 0 -7 -5 -5 -11 5 -6 10 -8 25 -6 35 3 12 5 9 7
-8 3 -49 19 11 19 75 0 40 -3 53 -8 40 -8 -19 -9 -18 -13 5 -4 19 -6 16 -7
-12 0 -21 4 -38 9 -38 6 0 10 -5 10 -11 0 -6 -5 -7 -12 -2 -7 4 -19 8 -27 10
-19 2 -31 23 -31 51 0 15 4 21 11 16 9 -5 10 4 4 32 -8 45 -13 56 -23 50 -4
-2 -8 24 -9 60 0 37 3 61 8 58 5 -3 9 -11 8 -17 -5 -38 3 -97 12 -97 7 0 10
17 7 46 -3 45 -3 45 27 44 55 -3 61 -1 42 13 -10 7 -14 17 -9 25 7 10 14 10
38 -3 16 -8 22 -15 13 -15 -9 0 -16 -7 -16 -15 0 -13 10 -15 58 -10 l58 6 7
-35 c4 -26 11 -36 25 -36 10 0 21 -5 24 -10 4 -6 11 -7 17 -4 7 4 5 10 -6 16
-12 7 -14 13 -6 28 10 18 8 19 -20 14 -19 -4 -30 -2 -30 4 0 7 8 9 18 5 12 -4
14 -3 7 5 -12 13 -97 34 -90 22 3 -4 -7 -7 -22 -7 l-26 0 24 13 c13 7 33 11
44 8 18 -5 18 -5 -2 10 -12 9 -26 16 -30 15 -19 -3 -33 2 -33 12 0 8 6 7 18
-2 15 -13 16 -12 3 4 -8 10 -24 23 -35 28 -20 10 -21 10 -2 -5 17 -14 18 -16
3 -16 -16 0 -21 10 -18 36 1 7 -6 15 -15 18 -12 5 -15 2 -10 -10 5 -14 4 -15
-9 -4 -8 7 -12 16 -9 21 3 5 -2 9 -10 9 -9 0 -16 8 -16 18 0 12 -3 13 -8 4 -6
-9 -16 -4 -36 17 -23 24 -25 29 -11 35 10 4 14 2 9 -6 -4 -7 -3 -8 4 -4 7 4
12 16 12 28 0 16 -3 18 -14 9 -7 -6 -22 -8 -31 -4 -14 5 -16 3 -11 -8 4 -8 1
-6 -7 4 -8 9 -20 17 -26 17 -8 0 -10 8 -6 22 6 16 4 20 -8 15 -8 -3 -24 4 -36
17 -25 27 -27 41 -5 32 12 -4 15 -2 11 9 -4 8 -2 17 4 20 5 4 13 -4 18 -17 8
-21 8 -21 13 8 3 25 1 30 -17 30 -11 -1 -29 -11 -40 -22 l-19 -22 -28 37 c-15
20 -27 41 -27 46 0 6 6 2 13 -8 13 -17 36 -21 94 -18 14 1 22 7 22 19 0 10 16
27 37 39 l38 22 -25 11 c-23 10 -22 10 10 6 64 -7 126 31 97 60 -9 9 -58 -16
-52 -26 3 -4 -1 -12 -8 -18 -14 -11 -57 2 -57 18 0 10 6 12 40 14 8 1 14 6 12
11 -1 6 14 13 35 16 36 6 35 6 -14 8 -39 1 -53 -3 -53 -13 0 -17 -42 -28 -75
-20 -37 9 -30 -4 8 -14 30 -9 30 -9 -15 -8 -25 0 -41 4 -35 8 7 5 3 8 -10 8
-14 0 -23 7 -25 22 -4 29 -28 35 -35 9 -3 -12 -12 -21 -20 -21 -8 0 -11 -4 -8
-10 8 -13 -21 -13 -46 1 -25 13 -14 32 14 24 20 -5 20 -5 4 5 -14 9 -16 15 -6
26 9 11 15 12 25 3 10 -8 14 -8 14 -1 0 12 -39 42 -55 42 -5 0 -3 -5 5 -11 11
-7 4 -8 -25 -3 -22 4 -42 8 -44 10 -2 2 -10 -4 -18 -12 -17 -16 -25 -12 -77
33 -33 30 -53 60 -22 34 7 -6 21 -9 30 -5 9 3 16 2 16 -4 0 -17 32 -23 49 -8
9 7 27 17 40 21 21 6 22 9 8 17 -11 5 -24 5 -36 -2 -24 -13 -63 -14 -43 -1 11
7 11 9 -2 14 -9 4 -16 13 -16 22 0 8 -7 15 -15 15 -9 0 -18 6 -21 14 -3 8 -12
12 -19 10 -7 -3 -28 2 -47 11 -18 9 -26 10 -17 3 17 -14 19 -19 19 -43 0 -8 5
-15 11 -15 6 0 8 8 4 19 -6 19 -5 19 24 5 18 -9 34 -26 37 -40 8 -30 -1 -41
-19 -26 -8 7 -17 9 -21 5 -8 -8 -55 46 -56 64 0 6 -5 15 -12 19 -7 5 -8 3 -3
-7 7 -11 5 -11 -9 1 -11 8 -14 16 -7 18 6 2 9 8 6 12 -3 5 -11 7 -18 4 -7 -2
-24 8 -37 23 -14 15 -17 22 -8 14 15 -11 17 -10 15 7 -1 13 -7 18 -18 15 -20
-6 -33 26 -24 60 l6 22 -13 -23 c-11 -17 -16 -20 -26 -10 -15 15 -16 31 0 22
7 -4 8 -3 4 5 -4 6 -12 9 -17 6 -5 -4 -9 0 -10 7 0 7 -4 4 -9 -7 -5 -12 -9
-14 -9 -6 -1 11 -5 10 -16 -5 -18 -24 -19 -7 0 26 8 14 14 30 14 35 0 6 -6 -1
-14 -15 -17 -29 -20 -9 -4 22 9 16 8 19 -2 13 -9 -6 -11 -3 -6 9 4 11 3 15 -4
11 -6 -4 -9 -31 -7 -63 3 -51 5 -57 25 -55 12 1 23 -5 27 -15 18 -51 24 -74
17 -66 -5 5 -12 18 -15 29 -3 11 -3 -2 0 -30 5 -50 5 -50 -11 -21 -8 15 -15
42 -16 60 0 26 -2 28 -8 11 -5 -11 -6 -26 -4 -32 3 -7 0 -26 -5 -43 -7 -18 -7
-30 -1 -30 5 0 9 7 9 15 0 8 5 15 10 15 6 0 10 -7 10 -16 0 -12 7 -15 27 -11
22 4 25 3 13 -6 -18 -15 -23 -33 -15 -58 9 -29 26 -23 19 7 -5 18 -1 29 12 38
13 10 15 18 9 28 -6 8 -2 5 8 -5 21 -23 22 -38 2 -31 -20 8 -31 -22 -15 -41
12 -15 44 -15 57 0 5 4 2 5 -4 1 -8 -4 -11 -2 -8 6 4 10 23 -3 60 -39 42 -40
55 -59 54 -80 -1 -17 -3 -21 -6 -10 -2 9 -9 17 -14 17 -5 0 -9 5 -9 11 0 5 5
7 12 3 7 -4 8 -3 4 4 -4 6 -13 9 -21 6 -11 -4 -12 -11 -5 -24 5 -9 7 -20 3
-23 -3 -3 1 -13 10 -21 8 -8 17 -12 21 -9 3 4 6 1 6 -6 0 -8 -7 -10 -22 -6
-20 7 -21 5 -15 -44 4 -32 2 -49 -3 -46 -6 4 -10 -8 -10 -27 0 -18 -2 -42 -4
-53 -2 -11 -1 -14 1 -7 4 10 24 19 23 10 -6 -30 -29 -98 -29 -85 -1 9 -5 17
-10 17 -10 0 -9 -25 1 -36 4 -3 4 -13 1 -22 -3 -10 -7 -23 -9 -30 -5 -17 -29
5 -37 34 -3 14 -5 12 -6 -8 -1 -31 -16 -45 -25 -23 -3 8 -1 15 4 15 6 0 10 9
10 21 0 15 4 19 16 15 9 -3 17 -6 20 -6 2 0 1 -7 -2 -15 -4 -8 -1 -15 5 -15
12 0 13 21 2 60 -6 22 -8 23 -14 7 -4 -10 -15 -17 -24 -15 -12 2 -17 -3 -15
-14 1 -9 -2 -19 -8 -23 -6 -4 -10 5 -10 21 0 22 -3 25 -12 16 -10 -10 -10 -17
0 -33 17 -27 6 -38 -13 -13 -8 10 -12 27 -9 37 3 9 1 17 -5 17 -6 0 -11 15
-11 33 0 22 3 28 9 18 11 -17 41 -7 41 13 0 7 -11 16 -25 18 -14 3 -25 1 -25
-4 0 -5 -5 -6 -10 -3 -8 5 -8 11 0 20 8 9 8 15 0 20 -5 3 -10 -1 -10 -9 0 -9
-4 -16 -8 -16 -14 0 -11 -38 4 -44 8 -3 14 -14 14 -24 0 -10 5 -23 12 -30 9
-9 9 -12 1 -12 -7 0 -15 10 -19 23 -3 12 -13 30 -21 39 -8 9 -12 21 -9 27 3 5
1 15 -6 23 -7 7 -13 29 -14 48 -2 68 -14 108 -34 113 -28 7 -25 34 4 41 22 5
23 9 15 48 -11 58 -11 66 2 48 9 -13 10 -13 6 1 -4 13 11 114 23 154 2 6 -1
35 -5 65 -8 51 -9 53 -16 25 -6 -19 -4 -32 3 -37 15 -8 -6 -146 -24 -163 -8
-7 -9 -4 -4 10 7 18 26 119 26 138 0 4 -5 7 -11 7 -6 0 -8 -8 -4 -19 3 -11 2
-22 -3 -25 -5 -3 -10 -24 -10 -47 -1 -23 -6 -47 -11 -52 -15 -15 -14 -40 0
-31 8 5 10 -2 6 -21 -2 -16 0 -36 6 -45 5 -10 7 -26 2 -36 -5 -13 -9 -15 -12
-6 -3 6 -8 10 -12 8 -4 -3 -5 11 -3 31 4 27 1 34 -8 28 -34 -21 16 303 66 425
53 130 95 170 182 170 98 0 449 -124 762 -270 253 -118 371 -170 366 -161 -3
5 -54 37 -113 72 -60 35 -111 68 -115 74 -4 5 -8 6 -8 1 0 -6 -7 -1 -16 10 -8
10 -13 13 -9 7 4 -9 1 -11 -9 -7 -9 3 -13 10 -10 15 3 5 -2 6 -10 3 -9 -3 -16
-1 -16 5 0 6 -7 11 -16 11 -8 0 -12 4 -9 10 3 6 -1 7 -9 4 -9 -3 -16 -1 -16 6
0 6 -4 8 -10 5 -9 -6 -70 21 -70 31 0 2 9 0 19 -6 11 -5 23 -10 28 -10 4 1 -3
7 -16 14 -14 8 -30 12 -36 10 -18 -7 -67 15 -60 26 3 5 0 11 -7 11 -49 4 -116
28 -122 44 -3 9 -19 15 -41 15 -25 0 -34 4 -29 12 5 8 2 9 -9 5 -10 -3 -17 -3
-17 1 0 4 -19 12 -42 18 -24 6 -97 28 -163 48 -133 40 -220 47 -282 21 -20 -8
-38 -13 -41 -11 -9 10 55 113 96 154 24 24 68 55 99 69 54 25 61 26 186 19 99
-5 178 -17 331 -51 111 -24 262 -56 336 -70 74 -14 146 -28 159 -31 l25 -5
-25 21 c-18 16 -19 20 -6 16 10 -3 16 -2 12 3 -3 5 -20 8 -38 7 -35 -3 -67 18
-43 27 8 3 25 3 38 1 18 -4 17 -2 -7 10 l-30 15 28 -5 c36 -8 35 1 -3 15 -18
6 -28 6 -25 1 4 -6 -4 -10 -17 -11 -22 0 -22 -1 -3 -9 34 -14 -117 -5 -156 10
l-37 13 35 18 c19 10 42 15 51 11 14 -5 12 -7 -7 -12 -25 -6 -42 -30 -21 -30
6 0 9 4 5 9 -3 5 13 2 35 -6 34 -14 44 -14 65 -3 27 14 35 36 10 26 -8 -3 -15
-1 -15 3 0 5 -7 12 -16 15 -8 3 -12 2 -9 -4 9 -14 -17 -12 -37 4 -10 7 -14 17
-10 21 4 5 -1 5 -10 2 -9 -3 -18 -2 -20 4 -5 15 -106 50 -113 39 -3 -6 5 -10
19 -10 14 0 26 -5 26 -11 0 -6 -9 -8 -22 -4 -22 6 -22 5 -4 -9 17 -14 17 -16
3 -22 -10 -3 -17 -10 -17 -15 0 -15 27 -10 33 5 4 9 14 12 26 9 12 -3 21 -1
21 6 0 6 -7 11 -17 11 -9 0 -14 3 -10 6 9 10 47 -6 47 -20 0 -17 -77 -37 -108
-29 -22 5 -31 23 -12 23 6 0 10 5 10 10 0 6 -7 10 -15 10 -8 0 -15 -4 -15 -10
0 -5 -10 -10 -22 -10 -31 1 -128 28 -103 29 11 1 36 -4 55 -9 34 -10 80 2 80
20 0 14 -46 26 -73 19 -15 -4 -25 -3 -22 1 8 13 -36 40 -64 40 -23 0 -24 -1
-6 -20 14 -15 15 -20 4 -21 -8 0 -26 -2 -41 -4 l-27 -3 14 44 c11 37 11 44 -1
44 -8 0 -14 -6 -14 -14 0 -7 -6 -19 -14 -26 -8 -6 -16 -22 -18 -34 -3 -23 -4
-23 -51 -9 -41 12 -47 16 -37 29 10 11 9 14 -9 14 -11 0 -21 5 -21 10 0 6 5
10 10 10 6 0 10 3 10 8 0 4 -55 8 -123 9 -74 1 -114 -2 -102 -7 11 -5 49 -9
85 -10 46 -1 59 -4 45 -10 -18 -8 -17 -9 8 -9 15 -1 27 4 27 9 0 6 5 10 11 10
6 0 9 -7 5 -15 -4 -10 1 -15 14 -15 11 0 20 -4 20 -10 0 -12 -15 -13 -38 -1
-29 15 -125 33 -185 35 -31 0 -52 3 -47 4 14 5 12 29 -2 35 -8 3 -14 -5 -15
-21 0 -14 -9 -32 -19 -39 -10 -7 -13 -13 -7 -13 7 0 14 4 18 10 3 5 12 7 20 3
9 -3 21 -1 28 5 14 11 117 4 117 -9 0 -8 -43 -4 -77 7 -7 2 -13 -1 -13 -6 0
-6 -13 -10 -29 -10 -16 0 -31 -4 -33 -9 -1 -5 -16 -13 -32 -17 -21 -5 -27 -4
-22 5 4 6 1 11 -6 11 -7 0 0 12 16 26 15 14 26 27 24 29 -3 3 -20 -9 -38 -25
-19 -17 -28 -30 -21 -30 7 0 9 -5 6 -10 -4 -6 -9 -8 -13 -6 -4 2 -16 -2 -27
-10 -16 -12 -17 -16 -5 -27 9 -8 11 -8 6 0 -3 6 -2 14 4 18 5 3 10 2 10 -4 0
-6 8 -8 18 -4 9 3 -7 -19 -37 -50 -30 -31 -58 -54 -62 -51 -5 2 -13 -12 -19
-33 -6 -21 -22 -51 -36 -68 -16 -18 -24 -23 -20 -12 3 11 2 16 -5 12 -6 -4 -7
-20 -4 -37 5 -21 4 -28 -4 -24 -13 8 -14 45 -2 65 5 8 14 10 21 6 8 -5 11 -3
8 6 -3 8 -13 13 -22 13 -9 -1 -16 2 -16 7 0 5 6 9 13 9 8 0 8 3 -2 9 -13 8
-12 16 5 52 27 61 115 190 191 281 73 88 279 280 327 305 79 41 230 5 516
-125 214 -97 267 -116 485 -173 287 -75 364 -99 430 -131 76 -38 121 -72 139
-106 37 -71 71 -272 111 -657 14 -132 33 -283 41 -335 11 -71 105 -542 115
-580 1 -3 7 45 13 105 7 73 8 112 1 117 -6 5 -6 8 2 8 11 0 38 99 29 107 -3 3
-10 -15 -16 -38 -6 -24 -12 -48 -14 -54 -2 -5 -6 11 -10 38 -4 26 -4 57 -1 68
5 15 4 19 -4 15 -10 -6 -15 5 -12 26 0 4 -6 25 -14 47 -22 63 -33 134 -65 431
-17 151 -37 313 -45 360 -41 223 -106 398 -165 441 -17 13 -92 112 -166 219
-180 260 -192 276 -295 412 -49 65 -89 127 -89 139 0 12 6 47 14 78 8 31 20
89 26 128 11 67 13 72 31 62 11 -5 17 -14 14 -19 -3 -5 -1 -11 5 -15 5 -3 10
-1 10 5 0 7 7 9 16 6 9 -4 22 -2 28 3 24 20 49 17 52 -6 2 -13 -1 -23 -7 -23
-8 0 -8 -4 1 -15 6 -8 9 -19 5 -25 -3 -5 -1 -10 4 -10 6 0 11 -6 11 -14 0 -8
15 -18 33 -22 l32 -7 -30 -9 c-16 -4 -36 -6 -42 -3 -7 2 -13 0 -13 -5 0 -5 19
-10 43 -12 41 -3 45 -7 33 -38 -4 -9 0 -24 8 -35 14 -19 15 -17 11 20 l-5 40
10 -38 c8 -30 7 -42 -5 -53 -13 -13 -15 -11 -21 13 -4 15 -11 34 -16 40 -6 7
-8 19 -5 26 3 8 -3 13 -14 14 -20 2 -26 -12 -10 -21 5 -3 18 -26 30 -51 12
-25 26 -45 31 -45 6 0 10 -5 10 -10 0 -21 74 -139 81 -129 8 13 -1 59 -11 59
-5 0 -6 -10 -4 -22 3 -15 -2 -10 -13 12 -10 19 -22 38 -27 41 -5 4 1 12 14 19
15 8 20 8 16 1 -4 -6 0 -11 8 -11 9 0 16 -7 16 -15 0 -8 5 -15 11 -15 12 0 8
-62 -6 -94 -8 -18 -7 -18 12 1 12 12 24 32 28 45 5 19 4 20 -5 8 -9 -12 -11
-10 -7 12 3 18 -2 33 -14 44 -10 9 -16 21 -13 25 8 14 -6 49 -18 46 -7 -1 -13
11 -14 27 -2 16 -9 33 -16 37 -20 12 -23 1 -5 -19 13 -14 14 -21 4 -31 -9 -9
-9 -14 3 -21 8 -5 11 -12 8 -16 -16 -16 -34 25 -35 81 -2 80 -2 77 -13 70 -5
-3 -10 1 -10 10 0 8 -8 19 -17 22 -29 11 -53 46 -48 70 3 12 -1 24 -8 26 -9 4
-9 6 1 6 7 1 26 -14 43 -31 l30 -33 -6 33 c-8 42 7 42 46 0 16 -18 29 -30 29
-27 0 10 -33 73 -57 109 -13 19 -23 46 -23 60 1 22 2 23 11 7 5 -9 8 -21 5
-25 -2 -4 2 -15 9 -25 11 -15 13 -16 19 -2 3 8 1 15 -4 15 -6 0 -10 5 -10 11
0 20 -63 109 -77 109 -7 0 -13 -5 -13 -11 0 -6 6 -9 14 -6 18 7 30 -23 16 -37
-7 -6 -10 -7 -8 -1 2 6 0 10 -3 10 -7 0 -109 131 -109 141 0 3 7 1 15 -6 12
-10 15 -10 15 4 0 9 -5 16 -11 16 -5 0 -8 4 -5 8 8 13 -84 103 -96 96 -7 -5
-4 -10 8 -15 25 -9 52 -39 35 -39 -7 0 -9 -5 -6 -11 4 -6 13 -8 20 -5 21 8 36
-17 19 -32 -11 -10 -14 -10 -14 0 0 7 -9 19 -20 26 -12 7 -18 17 -14 23 3 6
-2 13 -13 15 -10 3 -27 18 -38 34 -10 15 -31 35 -47 45 -16 9 -26 20 -23 24 6
11 -30 43 -39 34 -4 -4 -4 1 0 11 6 16 9 15 34 -11 15 -15 25 -32 22 -37 -3
-5 2 -7 11 -3 11 4 14 2 10 -9 -3 -9 1 -14 11 -14 9 0 20 -10 25 -22 6 -16 10
-18 16 -9 11 19 -114 132 -135 121 -22 -12 -52 11 -35 27 7 7 16 10 19 7 3 -2
2 1 -3 8 -8 8 -14 8 -25 -1 -12 -10 -26 -7 -73 18 -32 17 -65 31 -73 31 -13 0
-13 1 0 10 12 8 10 10 -10 10 -45 -1 -93 12 -79 21 7 4 25 1 40 -7 26 -13 30
-12 53 9 16 15 22 28 17 36 -5 7 -6 22 -4 32 3 10 1 19 -5 19 -5 0 -9 -8 -8
-17 1 -12 -6 -18 -19 -18 -15 0 -21 8 -23 31 -3 26 -7 32 -27 30 -13 0 -23 -5
-22 -11 1 -5 -7 -10 -18 -11 -43 -2 -49 -4 -39 -13 13 -12 64 -23 63 -14 -4
25 2 36 13 25 16 -16 -9 -44 -33 -37 -10 4 -24 3 -31 -2 -9 -5 -3 -10 17 -13
17 -4 35 -2 42 3 8 5 23 5 40 -2 27 -10 27 -11 -7 -6 -35 6 -35 6 -10 -9 34
-20 39 -20 50 7 6 15 9 17 9 6 1 -26 -24 -41 -56 -32 -15 4 -34 6 -40 5 -7 -2
-13 2 -13 8 0 5 -7 10 -15 10 -18 0 -20 -16 -2 -23 7 -3 5 -6 -5 -6 -10 -1
-18 4 -18 10 0 6 -9 8 -22 4 -18 -5 -20 -4 -8 4 23 16 -118 6 -160 -11 l-35
-15 75 -13 c86 -14 239 -62 290 -90 47 -26 31 -25 -165 5 -205 32 -427 34
-590 5 -60 -10 -111 -17 -113 -15 -2 2 32 17 75 33 80 31 170 54 258 67 53 7
48 17 -15 30 -42 8 -97 32 -105 45 -3 6 -13 10 -21 10 -15 0 -76 39 -82 52 -2
4 -9 5 -16 2 -8 -3 -16 2 -20 11 -3 9 -10 13 -16 10 -17 -10 -34 6 -19 17 11
8 10 9 -3 4 -10 -3 -18 -1 -18 4 0 6 -9 10 -20 10 -11 0 -20 7 -20 15 0 8 -5
15 -10 15 -7 0 -7 -6 0 -19z m146 -140 c-8 -12 40 -23 67 -16 18 5 19 4 7 -4
-11 -9 -4 -10 30 -6 42 4 43 4 10 -4 -19 -5 -48 -7 -65 -4 -23 4 -27 2 -15 -6
11 -9 4 -10 -30 -5 -56 8 -57 9 -35 34 18 20 41 28 31 11z m1138 -550 c-6 -6
-24 19 -24 34 1 6 7 1 15 -9 8 -11 12 -22 9 -25z m-1595 -61 c2 -104 6 -140
15 -140 6 0 6 -3 1 -9 -6 -5 -47 -12 -92 -16 -77 -7 -83 -6 -84 11 0 18 -1 17
-9 -1 -7 -15 -9 -16 -9 -4 -1 9 6 22 14 29 13 10 15 9 15 -9 0 -27 31 -28 55
-1 18 20 17 20 -8 20 -31 0 -34 11 -10 31 14 12 16 12 11 -2 -7 -18 23 -23 34
-5 12 17 10 -12 -2 -35 -10 -17 -7 -19 32 -18 33 1 38 3 19 8 -25 7 -42 31
-22 31 18 0 12 24 -8 37 -15 10 -21 10 -24 0 -4 -9 -7 -9 -18 0 -10 10 -17 9
-32 -5 -16 -14 -16 -10 4 20 27 42 44 50 34 16 -5 -20 -5 -21 5 -5 6 9 9 26 5
36 -4 13 1 24 13 33 10 7 21 20 25 28 4 11 6 9 6 -5 1 -11 -8 -27 -18 -34 -16
-12 -17 -18 -8 -38 5 -12 14 -23 18 -23 13 0 28 58 24 96 -2 24 0 32 5 24 5
-8 9 -39 9 -70z m1590 43 c0 -5 -4 -17 -9 -28 -8 -18 -9 -17 -9 8 -1 15 4 27
9 27 6 0 10 -3 9 -7z m-521 -23 c37 -23 110 -95 150 -149 39 -52 182 -229 292
-361 83 -100 151 -190 393 -518 33 -44 42 -63 30 -59 -10 3 -83 26 -163 51
-149 45 -232 75 -216 76 11 0 -54 70 -66 70 -4 0 -5 -7 -2 -15 4 -8 1 -15 -5
-15 -6 0 -11 5 -11 12 0 6 -2 9 -5 6 -3 -3 -3 -13 1 -22 7 -19 30 -22 36 -4 3
9 6 9 12 0 16 -26 -29 -23 -127 8 -56 18 -106 35 -111 38 -11 6 34 31 54 31
10 0 11 -2 3 -6 -16 -6 -17 -33 -2 -33 5 0 7 5 4 10 -3 6 -1 10 5 10 6 0 13
-7 16 -15 4 -8 17 -15 29 -15 13 0 25 -6 28 -12 3 -10 10 -8 23 5 17 16 17 17
1 17 -9 0 -17 4 -17 9 0 5 -10 13 -22 16 -13 4 -38 16 -57 28 -28 17 -31 21
-17 29 14 8 15 13 5 24 -17 20 -28 17 -22 -6 3 -13 0 -20 -8 -20 -10 0 -10 -3
-1 -12 17 -17 15 -25 -9 -31 -16 -4 -20 -1 -19 16 3 37 0 48 -10 42 -5 -3 -10
-15 -10 -26 0 -10 -6 -19 -14 -19 -24 0 -30 20 -10 34 14 11 15 14 3 22 -10 6
-8 10 11 15 22 6 23 7 6 14 -10 5 -21 4 -25 -3 -3 -5 -17 -12 -30 -13 -31 -5
-39 -29 -12 -36 12 -3 21 -11 21 -19 0 -7 8 -18 18 -23 9 -6 12 -11 6 -11 -6
0 -25 12 -41 28 -33 31 -64 69 -47 59 7 -4 17 0 24 8 7 8 21 15 31 15 10 0 21
5 24 10 3 6 15 10 25 10 11 0 24 9 30 20 10 19 11 19 29 2 9 -9 16 -23 13 -30
-3 -8 2 -10 14 -5 14 5 16 3 11 -11 -4 -10 -3 -15 3 -11 5 3 26 -13 46 -35 20
-22 39 -38 42 -35 3 3 -8 20 -25 38 -85 87 -107 113 -106 118 1 4 -15 22 -35
42 -20 19 -45 49 -55 67 -10 18 -20 30 -24 26 -3 -3 2 -15 12 -26 12 -14 18
-34 17 -58 -1 -25 1 -31 6 -19 7 17 9 17 35 -3 29 -23 37 -46 12 -36 -8 3 -14
0 -12 -6 1 -7 -7 -14 -17 -16 -14 -3 -17 0 -13 11 4 11 0 13 -14 10 -15 -4
-17 -9 -10 -16 14 -14 14 -27 1 -27 -5 0 -10 7 -10 15 0 10 -10 15 -33 15 -23
0 -41 8 -57 25 -23 25 -50 33 -50 16 0 -5 7 -14 15 -21 8 -7 15 -17 15 -22 0
-11 -18 6 -40 38 -8 12 -29 42 -47 66 -18 25 -33 52 -35 59 -2 8 -7 17 -12 20
-5 4 -1 17 9 30 l17 24 -7 -23 c-6 -22 8 -52 25 -52 5 0 10 23 12 51 3 44 1
49 -14 45 -21 -5 -26 30 -5 37 6 2 8 8 4 13 -4 5 -12 2 -17 -6 -15 -23 -13 16
2 43 10 20 10 21 -6 8 -14 -12 -16 -24 -11 -58 5 -34 3 -43 -9 -43 -8 0 -16
-6 -19 -12 -2 -7 -7 4 -11 25 l-7 38 -21 -26 c-14 -18 -26 -24 -40 -19 -12 3
-18 2 -15 -3 3 -5 -12 -14 -34 -20 -21 -5 -39 -6 -39 -2 0 5 8 9 18 9 10 0 25
9 35 20 9 11 28 20 42 20 14 0 25 4 25 9 0 5 7 17 16 26 11 11 13 20 7 26 -7
7 -12 2 -17 -14 -3 -14 -13 -28 -22 -31 -27 -10 -29 3 -4 26 13 12 18 24 12
26 -12 4 -46 -27 -55 -49 -3 -8 -6 -5 -6 9 -1 12 4 22 10 22 5 0 7 5 4 10 -7
12 -26 14 -24 3 1 -5 1 -27 0 -51 -1 -41 -2 -42 -31 -40 -28 2 -30 5 -32 43
l-1 40 -4 -37 -4 -38 -52 0 c-29 0 -90 -3 -137 -6 -62 -4 -81 -3 -70 5 12 8 7
11 -22 11 -21 0 -38 -4 -38 -9 0 -5 -7 -12 -16 -15 -8 -3 -12 -2 -9 4 3 5 -6
12 -21 16 -19 5 -22 9 -12 15 9 6 7 9 -9 9 -12 0 -29 3 -39 7 -11 4 -15 3 -10
-5 3 -6 -2 -13 -11 -15 -10 -2 -2 -3 17 -1 19 2 29 1 22 -2 -10 -5 -9 -9 5
-19 16 -12 13 -14 -26 -12 -35 2 -44 -1 -47 -16 -2 -15 3 -17 29 -13 18 3 -4
-6 -48 -21 -53 -17 -80 -22 -83 -14 -2 6 -18 11 -35 12 -31 1 -31 1 -7 10 21
7 19 8 -10 4 -19 -3 -39 -10 -45 -16 -7 -8 -4 -9 13 -4 12 3 22 2 22 -4 0 -5
12 -12 28 -14 15 -3 -4 -3 -43 -2 -49 3 -64 1 -50 -6 14 -6 6 -8 -30 -4 -135
12 -165 17 -159 27 4 6 -1 8 -14 4 -11 -4 -23 -2 -27 4 -4 6 4 10 20 10 14 0
24 4 20 9 -3 6 -18 6 -37 -1 -24 -9 -33 -8 -36 0 -2 7 -15 12 -29 12 -46 0
-96 49 -117 115 -5 19 -1 20 92 22 53 0 117 6 142 11 37 9 24 10 -82 9 -138
-2 -155 3 -144 47 10 39 65 49 226 41 160 -8 175 -4 325 85 162 96 205 106
570 141 121 11 222 22 224 25 11 11 69 2 99 -16z m575 -15 c15 -19 23 -35 17
-35 -5 0 -10 -7 -10 -15 0 -8 -4 -15 -10 -15 -13 0 -13 17 0 25 6 4 3 16 -7
32 -16 23 -17 24 -24 7 -6 -15 -8 -14 -8 9 -1 36 8 34 42 -8z m-1681 -27 c-7
-7 -12 -8 -12 -2 0 14 12 26 19 19 2 -3 -1 -11 -7 -17z m1658 -34 c0 -29 13
-31 40 -4 19 19 19 19 40 -13 19 -28 19 -29 2 -9 -23 25 -34 29 -26 7 4 -10 0
-15 -15 -15 -12 0 -21 -4 -21 -10 0 -19 -18 -10 -23 11 -4 16 -11 19 -26 14
-12 -4 -21 -2 -21 4 0 6 6 11 14 11 8 0 18 5 22 11 5 9 -1 10 -22 5 -27 -7
-28 -6 -9 7 25 19 45 11 45 -19z m-2870 -244 c0 -13 -1 -13 -10 0 -5 8 -10 22
-10 30 0 13 1 13 10 0 5 -8 10 -22 10 -30z m820 -110 c0 -5 -2 -10 -4 -10 -3
0 -8 5 -11 10 -3 6 -1 10 4 10 6 0 11 -4 11 -10z m-813 -22 c-3 -8 -6 -5 -6 6
-1 11 2 17 5 13 3 -3 4 -12 1 -19z m1891 -5 c-16 -2 -40 -2 -55 0 -16 2 -3 4
27 4 30 0 43 -2 28 -4z m-239 -19 c2 -2 -16 -4 -40 -4 -31 0 -40 3 -29 10 13
8 57 4 69 -6z m323 4 c-22 -9 -190 -8 -222 1 -14 4 34 7 107 7 73 -1 124 -4
115 -8z m-1910 -30 c-7 -7 -12 -8 -12 -2 0 14 12 26 19 19 2 -3 -1 -11 -7 -17z
m848 -3 c0 -2 -9 -3 -19 -2 -11 0 -18 5 -15 9 4 6 34 0 34 -7z m-37 -45 c-14
-16 -28 -30 -30 -30 -9 0 -1 19 17 38 32 34 44 26 13 -8z m1477 -150 c0 -5 -2
-10 -4 -10 -3 0 -8 5 -11 10 -3 6 -1 10 4 10 6 0 11 -4 11 -10z m44 -26 c8
-22 8 -24 -8 -24 -15 0 -28 24 -19 34 11 10 21 7 27 -10z m-40 -10 c10 -25 -1
-29 -14 -5 -6 12 -7 21 -1 21 5 0 12 -7 15 -16z m76 -54 c0 -5 -4 -10 -10 -10
-5 0 -10 5 -10 10 0 6 5 10 10 10 6 0 10 -4 10 -10z m17 -12 c-3 -8 -6 -5 -6
6 -1 11 2 17 5 13 3 -3 4 -12 1 -19z m53 -58 c0 -5 -5 -10 -11 -10 -5 0 -7 5
-4 10 3 6 8 10 11 10 2 0 4 -4 4 -10z m130 -20 c0 -5 -2 -10 -4 -10 -3 0 -8 5
-11 10 -3 6 -1 10 4 10 6 0 11 -4 11 -10z m-907 -277 c-7 -2 -19 -2 -25 0 -7
3 -2 5 12 5 14 0 19 -2 13 -5z m316 -27 c-2 -2 -20 -6 -39 -10 -25 -4 -31 -3
-20 4 14 9 69 15 59 6z m76 -6 c-11 -5 -27 -9 -35 -9 -9 0 -8 4 5 9 11 5 27 9
35 9 9 0 8 -4 -5 -9z m-158 -6 c-3 -3 -12 -4 -19 -1 -8 3 -5 6 6 6 11 1 17 -2
13 -5z m460 -120 c-3 -3 -12 -4 -19 -1 -8 3 -5 6 6 6 11 1 17 -2 13 -5z
m-1177 -234 c0 -5 -2 -10 -4 -10 -3 0 -8 5 -11 10 -3 6 -1 10 4 10 6 0 11 -4
11 -10z m160 -470 c0 -5 -5 -10 -11 -10 -5 0 -7 5 -4 10 3 6 8 10 11 10 2 0 4
-4 4 -10z m153 -161 c-6 -6 -10 1 -10 23 0 30 1 30 10 10 7 -15 7 -26 0 -33z
m166 30 c35 -12 38 -21 16 -39 -13 -10 -19 -9 -38 6 -12 10 -24 20 -26 21 -3
2 8 23 13 23 2 0 17 -5 35 -11z m-492 -96 c-3 -10 -5 -4 -5 12 0 17 2 24 5 18
2 -7 2 -21 0 -30z m885 30 c-6 -2 -10 -8 -7 -13 3 -4 -2 -10 -10 -14 -8 -3
-14 0 -12 7 2 14 18 27 32 26 6 0 4 -3 -3 -6z m-605 -35 c-3 -8 -6 -5 -6 6 -1
11 2 17 5 13 3 -3 4 -12 1 -19z m21 -9 c-6 -16 -12 -28 -14 -26 -5 5 13 57 20
57 3 0 0 -14 -6 -31z m-279 -59 c0 -9 -4 -8 -9 5 -5 11 -9 27 -9 35 0 9 4 8 9
-5 5 -11 9 -27 9 -35z m716 40 c-11 -5 -36 -8 -55 -8 l-35 1 35 7 c19 4 44 8
55 8 l20 1 -20 -9z m-155 -21 c0 -6 8 -8 18 -5 12 4 27 -3 42 -19 13 -14 18
-25 11 -25 -6 0 -14 7 -18 16 -4 10 -13 14 -29 10 -17 -5 -26 -1 -34 14 -7 14
-7 20 0 20 5 0 10 -5 10 -11z m80 -11 c0 -6 -6 -5 -15 2 -8 7 -15 14 -15 16 0
2 7 1 15 -2 8 -4 15 -11 15 -16z m-383 -23 c-7 -13 -14 -20 -15 -14 -2 5 2 16
8 24 18 21 20 18 7 -10z m-114 -225 c10 -16 16 -30 13 -30 -2 0 -14 14 -26 30
-12 17 -18 30 -13 30 5 0 17 -13 26 -30z m710 -135 c15 -4 27 -11 27 -16 0
-13 -61 -4 -70 11 -6 10 -9 9 -13 -1 -4 -12 -7 -11 -16 1 -16 22 -13 30 6 23
13 -5 15 -2 10 13 -6 16 -5 16 10 -3 10 -12 30 -25 46 -28z m26 -49 c9 -11 6
-12 -14 -8 -14 2 -28 8 -31 13 -9 15 33 10 45 -5z m206 -66 c-3 -5 -10 -10
-16 -10 -5 0 -9 5 -9 10 0 6 7 10 16 10 8 0 12 -4 9 -10z m-244 -235 c5 4 9
-1 9 -10 0 -29 -25 -10 -27 21 -1 20 0 22 4 6 2 -12 9 -20 14 -17z m12 -52 c3
-5 7 -24 10 -43 l6 -35 -11 33 c-6 17 -15 32 -19 32 -5 0 -9 5 -9 10 0 12 17
13 23 3z m7 -120 c0 -45 -5 -40 -13 10 -3 22 -2 35 4 32 5 -4 9 -22 9 -42z
m58 -311 c2 -18 -1 -32 -7 -32 -6 0 -11 9 -11 19 0 11 -3 27 -7 37 -4 12 -2
15 8 12 8 -2 15 -19 17 -36z m12 -64 c0 -13 -5 -30 -10 -38 -7 -11 -9 -5 -7
22 2 40 17 53 17 16z m8 -138 l0 -35 -9 40 c-4 22 -8 49 -7 60 0 16 2 15 8 -5
4 -14 8 -41 8 -60z m62 -140 c0 -11 -4 -20 -10 -20 -5 0 -10 -8 -9 -17 0 -11
3 -13 6 -5 7 17 23 15 23 -3 0 -8 -6 -15 -12 -16 -7 0 -3 -4 10 -9 12 -5 21
-17 21 -27 -1 -17 -2 -17 -6 0 -2 9 -8 15 -13 12 -14 -9 -40 37 -40 72 0 23 5
33 15 33 8 0 15 -9 15 -20z m40 -61 c0 -6 -4 -7 -10 -4 -5 3 -10 11 -10 16 0
6 5 7 10 4 6 -3 10 -11 10 -16z m-11 -89 c0 -9 -6 -4 -14 10 -19 33 -19 49 0
24 8 -10 14 -26 14 -34z"/>
<path d="M10103 13013 c9 -2 23 -2 30 0 6 3 -1 5 -18 5 -16 0 -22 -2 -12 -5z"/>
<path d="M9645 12310 c-3 -5 1 -10 9 -10 9 0 16 5 16 10 0 6 -4 10 -9 10 -6 0
-13 -4 -16 -10z"/>
<path d="M10636 12175 c19 -14 19 -14 0 -15 -16 0 -17 -3 -8 -12 10 -10 15
-10 23 2 8 11 9 9 4 -9 -5 -17 -4 -21 5 -16 13 8 60 -39 60 -60 0 -7 7 -15 15
-19 8 -3 15 -1 15 4 0 6 -4 10 -9 10 -5 0 -12 8 -15 18 -4 9 -22 35 -41 57
-19 22 -35 43 -35 47 0 5 -8 8 -17 8 -15 0 -14 -2 3 -15z"/>
<path d="M10570 12164 c-14 -8 -42 -17 -63 -20 -21 -4 -34 -10 -27 -14 6 -4
-15 -12 -45 -19 -31 -7 -55 -15 -53 -17 8 -7 128 22 140 34 7 7 19 12 28 12 8
0 26 9 40 20 29 22 17 25 -20 4z"/>
<path d="M10584 12129 c-10 -17 13 -36 27 -22 12 12 4 33 -11 33 -5 0 -12 -5
-16 -11z"/>
<path d="M10538 12113 c7 -3 16 -2 19 1 4 3 -2 6 -13 5 -11 0 -14 -3 -6 -6z"/>
<path d="M10318 12093 c7 -3 16 -2 19 1 4 3 -2 6 -13 5 -11 0 -14 -3 -6 -6z"/>
<path d="M10677 12085 c3 -8 9 -12 14 -9 12 7 11 11 -5 17 -10 4 -13 1 -9 -8z"/>
<path d="M10081 12069 c-64 -8 -93 -19 -52 -19 12 0 19 -4 16 -10 -4 -6 17
-10 56 -10 72 0 73 8 2 20 -43 7 -38 8 45 9 54 1 92 5 92 11 0 11 -66 11 -159
-1z"/>
<path d="M10591 12063 c0 -10 4 -27 9 -38 7 -17 9 -15 9 12 1 17 -3 35 -9 38
-5 3 -10 -2 -9 -12z"/>
<path d="M10755 12010 c-4 -12 0 -31 9 -45 18 -28 56 -31 48 -3 -2 10 -7 16
-11 13 -11 -6 -38 29 -33 43 2 7 1 12 -1 12 -3 0 -9 -9 -12 -20z"/>
<path d="M9845 11990 c17 -4 23 -8 14 -9 -9 0 -22 -8 -30 -17 -10 -13 -10 -17
2 -24 8 -6 18 -5 23 0 6 6 19 10 31 11 20 0 20 0 0 9 -17 7 -17 9 -2 9 9 1 17
5 17 10 0 10 -36 21 -65 20 -13 -1 -10 -4 10 -9z"/>
<path d="M10695 11978 c4 -20 -21 -88 -33 -88 -2 0 -11 8 -19 18 -13 16 -13
15 -4 -3 15 -28 37 -55 45 -55 4 0 5 8 2 18 -7 20 10 50 21 38 4 -5 2 -11 -4
-13 -14 -5 -18 -23 -5 -23 5 0 14 11 20 25 7 15 20 25 33 25 24 0 21 23 -4 28
-10 2 -17 -3 -17 -12 0 -9 -4 -16 -10 -16 -5 0 -10 7 -10 15 0 8 4 15 9 15 5
0 11 11 13 25 6 28 -8 35 -15 8 -4 -17 -5 -17 -6 0 0 9 -5 17 -10 17 -6 0 -8
-10 -6 -22z"/>
<path d="M9780 11980 c0 -5 7 -10 15 -10 8 0 15 5 15 10 0 6 -7 10 -15 10 -8
0 -15 -4 -15 -10z"/>
<path d="M9720 11970 l-25 -8 27 -1 c15 -1 30 4 33 9 7 11 0 11 -35 0z"/>
<path d="M9528 11953 c6 -2 18 -2 25 0 6 3 1 5 -13 5 -14 0 -19 -2 -12 -5z"/>
<path d="M9608 11953 c7 -3 16 -2 19 1 4 3 -2 6 -13 5 -11 0 -14 -3 -6 -6z"/>
<path d="M9665 11951 c-18 -7 -17 -8 7 -13 19 -4 25 -1 21 9 -3 7 -6 13 -7 12
0 0 -10 -4 -21 -8z"/>
<path d="M9528 11933 c7 -3 16 -2 19 1 4 3 -2 6 -13 5 -11 0 -14 -3 -6 -6z"/>
<path d="M9608 11933 c7 -3 16 -2 19 1 4 3 -2 6 -13 5 -11 0 -14 -3 -6 -6z"/>
<path d="M10822 11895 c-7 -27 -14 -57 -16 -65 -2 -9 -12 -14 -25 -12 -27 4
-27 -1 3 -32 13 -15 33 -26 45 -26 l22 0 -19 25 c-24 31 -18 69 9 62 20 -5 25
3 10 19 -5 5 -11 25 -13 44 -3 35 -3 35 -16 -15z"/>
<path d="M10802 11900 c0 -19 2 -27 5 -17 2 9 2 25 0 35 -3 9 -5 1 -5 -18z"/>
<path d="M10697 11844 c-6 -10 9 -42 16 -34 3 3 1 14 -3 24 -3 11 -9 15 -13
10z"/>
<path d="M10735 11840 c-25 -11 1 -11 35 0 20 6 21 8 5 8 -11 0 -29 -3 -40 -8z"/>
<path d="M10945 11711 c-3 -5 -1 -12 4 -15 5 -3 11 1 15 9 6 16 -9 21 -19 6z"/>
<path d="M11030 11635 c0 -10 3 -15 7 -12 3 4 12 -1 19 -11 7 -9 15 -14 18
-11 3 3 -5 16 -19 29 -22 21 -25 22 -25 5z"/>
<path d="M11105 11590 c-9 -15 -1 -23 21 -18 15 3 16 4 1 16 -11 9 -17 10 -22
2z"/>
<path d="M10115 10290 c3 -5 8 -10 11 -10 2 0 4 5 4 10 0 6 -5 10 -11 10 -5 0
-7 -4 -4 -10z"/>
<path d="M10145 10281 c-3 -5 -1 -12 5 -16 5 -3 10 1 10 9 0 18 -6 21 -15 7z"/>
<path d="M10905 13180 c-3 -5 1 -10 10 -10 9 0 13 5 10 10 -3 6 -8 10 -10 10
-2 0 -7 -4 -10 -10z"/>
<path d="M10865 13159 c-5 -5 -19 -16 -29 -23 -18 -12 -16 -14 22 -14 23 0 42
3 42 9 0 5 9 9 20 9 11 0 20 5 20 11 0 12 -43 1 -48 -12 -2 -5 -8 -6 -13 -3
-6 3 -5 11 2 20 13 16 0 18 -16 3z"/>
<path d="M9965 13151 c-3 -6 -11 -9 -16 -6 -16 10 -10 -16 8 -33 16 -16 16
-16 10 2 -5 12 -3 22 5 27 7 4 10 11 6 14 -3 4 -9 1 -13 -4z"/>
<path d="M10076 13081 c-4 -7 -5 -15 -2 -18 9 -9 19 4 14 18 -4 11 -6 11 -12
0z"/>
<path d="M10915 13071 c-3 -11 -3 -30 0 -44 4 -14 2 -28 -4 -31 -6 -4 -11 -12
-11 -19 0 -6 6 -2 14 9 8 10 18 15 23 11 4 -5 -3 -18 -17 -29 l-25 -21 25 8
c14 4 22 4 17 0 -4 -5 11 -19 34 -33 30 -18 44 -21 52 -13 8 8 1 20 -27 46
-21 19 -35 28 -32 20 3 -8 2 -15 -2 -15 -10 0 -38 90 -35 113 4 23 -4 22 -12
-2z m81 -136 c20 -19 4 -20 -22 0 -12 9 -14 14 -6 15 7 0 20 -7 28 -15z"/>
<path d="M10001 13043 c-1 -13 4 -23 9 -23 6 0 10 -7 10 -15 0 -8 9 -15 21
-15 19 0 19 1 -4 23 -13 12 -27 29 -30 37 -4 10 -6 8 -6 -7z"/>
<path d="M10032 13048 c2 -6 10 -14 16 -16 7 -2 10 2 6 12 -7 18 -28 22 -22 4z"/>
<path d="M10685 13049 c-16 -5 -39 -7 -50 -4 -11 3 -5 -2 13 -10 23 -11 38
-13 52 -5 13 7 20 6 23 -3 2 -6 7 -9 11 -6 3 3 0 12 -7 21 -9 12 -19 13 -42 7z"/>
<path d="M9836 12881 c-25 -26 -34 -41 -26 -46 6 -4 14 -4 17 -1 4 3 0 6 -7 6
-8 0 2 14 20 30 19 17 40 28 48 25 8 -3 12 0 10 7 -8 23 -24 18 -62 -21z"/>
<path d="M11330 12600 c0 -21 35 -72 43 -63 11 10 8 23 -5 21 -6 -2 -14 6 -16
17 -5 26 -22 44 -22 25z"/>
<path d="M11487 12373 c-11 -10 -8 -25 2 -18 6 3 14 -3 20 -12 6 -10 10 -13
10 -8 0 16 -25 45 -32 38z"/>
<path d="M9400 12350 c0 -5 5 -10 10 -10 6 0 10 5 10 10 0 6 -4 10 -10 10 -5
0 -10 -4 -10 -10z"/>
<path d="M11306 12283 c-4 -9 -1 -21 5 -27 9 -8 10 -7 6 7 -4 9 -2 17 3 17 6
0 10 5 10 10 0 16 -17 11 -24 -7z"/>
<path d="M11546 12287 c3 -10 9 -15 12 -12 3 3 0 11 -7 18 -10 9 -11 8 -5 -6z"/>
<path d="M11395 12281 c-3 -5 -1 -12 5 -16 5 -3 10 1 10 9 0 18 -6 21 -15 7z"/>
<path d="M11335 12260 c-3 -5 -1 -10 4 -10 6 0 11 5 11 10 0 6 -2 10 -4 10 -3
0 -8 -4 -11 -10z"/>
<path d="M8341 12244 c0 -11 3 -14 6 -6 3 7 2 16 -1 19 -3 4 -6 -2 -5 -13z"/>
<path d="M11560 12254 c0 -5 12 -22 26 -39 l26 -30 -23 35 c-29 45 -29 45 -29
34z"/>
<path d="M11325 12230 c3 -5 8 -10 11 -10 2 0 4 5 4 10 0 6 -5 10 -11 10 -5 0
-7 -4 -4 -10z"/>
<path d="M12500 12126 c0 -8 -5 -16 -10 -18 -6 -2 -12 -13 -15 -26 -6 -33 -28
-95 -38 -109 -4 -6 -4 -14 2 -17 6 -4 15 8 20 26 l9 33 1 -32 c1 -17 -4 -35
-9 -38 -6 -4 -8 -11 -5 -16 4 -5 2 -9 -4 -9 -6 0 -8 -6 -5 -13 3 -8 1 -25 -5
-39 -5 -13 -6 -30 -2 -37 11 -17 23 13 15 34 -4 8 -1 15 6 15 7 0 10 6 7 13
-3 7 1 37 9 66 7 29 16 69 19 89 2 20 8 49 11 65 3 15 4 27 0 27 -3 0 -6 -6
-6 -14z"/>
<path d="M8371 12094 c0 -11 3 -14 6 -6 3 7 2 16 -1 19 -3 4 -6 -2 -5 -13z"/>
<path d="M8392 12060 c0 -14 2 -19 5 -12 2 6 2 18 0 25 -3 6 -5 1 -5 -13z"/>
<path d="M8406 11955 c3 -16 9 -32 13 -35 3 -3 6 -17 6 -32 -1 -15 3 -24 8
-21 6 3 8 -12 5 -38 -3 -24 -3 -36 -1 -26 3 9 9 17 15 17 5 0 7 -8 4 -17 -4
-9 -8 -51 -10 -92 -4 -65 -3 -70 5 -32 12 64 19 74 13 19 -4 -30 -2 -48 4 -48
6 0 13 -8 15 -17 3 -10 4 5 1 32 -8 104 -17 160 -26 172 -5 7 -7 21 -4 31 4
11 -2 29 -14 44 -11 15 -25 37 -30 50 -9 21 -10 20 -4 -7z"/>
<path d="M8435 11950 c-3 -5 -1 -10 4 -10 6 0 11 5 11 10 0 6 -2 10 -4 10 -3
0 -8 -4 -11 -10z"/>
<path d="M9181 11944 c0 -11 3 -14 6 -6 3 7 2 16 -1 19 -3 4 -6 -2 -5 -13z"/>
<path d="M9164 11906 c-10 -8 -16 -18 -11 -22 4 -4 7 -2 7 5 0 7 4 10 9 7 5
-3 11 1 15 9 7 19 5 19 -20 1z"/>
<path d="M9367 11899 c7 -7 15 -10 18 -7 3 3 -2 9 -12 12 -14 6 -15 5 -6 -5z"/>
<path d="M11591 11868 c-10 -22 -16 -27 -22 -17 -7 11 -9 11 -9 -2 0 -25 12
-30 26 -11 9 11 13 13 14 4 0 -7 5 -10 10 -7 13 8 13 -6 0 -39 -12 -33 13 -91
41 -93 10 -1 19 3 19 8 0 6 -5 7 -12 3 -8 -5 -9 -2 -4 11 5 14 4 16 -8 6 -11
-9 -15 -8 -20 5 -9 22 -8 23 15 21 27 -2 42 -32 34 -65 -6 -23 -5 -24 11 -11
16 13 16 12 5 -9 -17 -31 -1 -119 19 -107 5 3 11 -4 15 -15 8 -25 21 -26 28 0
3 14 -1 21 -17 27 -11 4 -24 6 -28 5 -5 -1 -8 5 -8 14 0 10 5 12 13 7 24 -15
35 -11 29 10 -5 20 -6 20 -12 2 -6 -16 -8 -15 -14 10 -6 22 -9 26 -17 14 -7
-12 -9 -11 -9 4 0 9 4 17 8 17 13 0 10 33 -4 55 -8 11 -14 28 -14 38 0 11 -5
15 -11 11 -7 -4 -9 0 -5 13 4 12 -1 27 -15 42 -11 12 -18 29 -15 37 7 17 -10
19 -18 2 -3 -7 -3 -3 -1 9 9 34 -9 35 -24 1z m56 -89 c1 -14 0 -17 -3 -6 -3 9
-10 17 -15 17 -5 0 -9 5 -9 11 0 22 25 2 27 -22z"/>
<path d="M8411 11834 c0 -11 3 -14 6 -6 3 7 2 16 -1 19 -3 4 -6 -2 -5 -13z"/>
<path d="M12431 11794 c0 -11 3 -14 6 -6 3 7 2 16 -1 19 -3 4 -6 -2 -5 -13z"/>
<path d="M9094 11744 c-6 -19 -8 -34 -3 -34 8 0 24 59 17 65 -2 2 -8 -12 -14
-31z"/>
<path d="M12424 11747 c4 -16 3 -26 -1 -24 -11 7 -12 -3 -18 -132 -2 -57 -1
-101 3 -97 3 4 8 28 9 54 1 26 5 65 8 87 3 22 5 51 5 65 0 20 2 22 10 10 8
-11 9 -7 4 15 -4 17 -11 35 -17 40 -6 7 -7 1 -3 -18z"/>
<path d="M9270 11712 c-8 -15 -16 -30 -18 -34 -2 -5 1 -8 5 -8 9 0 35 61 30
67 -2 2 -10 -9 -17 -25z"/>
<path d="M9060 11659 c-6 -11 -10 -28 -8 -37 2 -10 8 -1 15 21 12 41 10 48 -7
16z"/>
<path d="M9182 11632 c-9 -19 -9 -29 -1 -36 9 -8 10 -8 5 1 -3 6 0 18 8 26 8
7 11 19 7 25 -4 6 -11 0 -19 -16z"/>
<path d="M8455 11597 c-4 -21 -5 -41 -1 -44 3 -4 7 5 7 18 1 15 5 9 9 -16 l7
-40 1 35 c0 19 -3 46 -8 60 -7 24 -7 23 -15 -13z"/>
<path d="M8491 11574 c0 -11 3 -14 6 -6 3 7 2 16 -1 19 -3 4 -6 -2 -5 -13z"/>
<path d="M9195 11560 c-3 -11 -10 -20 -14 -20 -5 0 -8 -12 -8 -26 0 -17 2 -22
8 -13 4 7 5 17 3 21 -3 4 -2 8 3 8 4 0 13 11 20 25 6 14 7 25 3 25 -5 0 -12
-9 -15 -20z"/>
<path d="M8492 11520 c-18 -29 -15 -38 4 -12 9 13 14 25 12 27 -2 2 -9 -5 -16
-15z"/>
<path d="M11757 11526 c-4 -11 -3 -15 4 -11 7 5 8 -5 4 -28 -5 -28 -1 -47 24
-93 17 -33 31 -57 32 -54 8 53 21 68 15 17 -3 -20 -1 -37 3 -37 5 0 6 -11 4
-24 -3 -14 2 -35 12 -48 l17 -23 -7 25 c-5 18 -4 22 4 14 6 -5 22 -50 35 -100
47 -179 69 -254 76 -254 8 0 90 205 90 223 0 7 -5 4 -11 -7 -9 -15 -13 -16
-20 -5 -5 8 -9 25 -10 39 0 20 -5 15 -23 -25 l-23 -50 -13 72 c-12 76 -30 107
-30 54 0 -65 -24 -29 -51 74 -7 28 -21 70 -32 94 -19 44 -19 44 -32 20 l-13
-24 -7 28 c-4 15 -5 31 -1 34 3 3 -4 15 -16 25 -15 13 -19 21 -11 26 8 5 8 13
-1 31 -11 20 -14 21 -19 7z m31 -101 c-3 -3 -9 2 -12 12 -6 14 -5 15 5 6 7 -7
10 -15 7 -18z"/>
<path d="M9011 11514 c0 -11 3 -14 6 -6 3 7 2 16 -1 19 -3 4 -6 -2 -5 -13z"/>
<path d="M8501 11483 c0 -10 7 -34 15 -53 13 -33 14 -33 8 -5 -3 17 -6 40 -7
53 -2 26 -17 30 -16 5z"/>
<path d="M10033 11433 c-13 -2 -23 -9 -23 -15 0 -5 7 -7 16 -4 9 3 24 6 35 6
10 0 19 5 19 10 0 10 -8 11 -47 3z"/>
<path d="M10224 11429 c-4 -8 1 -9 17 -4 21 7 22 6 10 -9 -13 -15 -10 -16 30
-10 41 6 43 5 24 -10 -20 -15 -20 -15 3 -16 12 0 22 5 22 10 0 16 18 12 90
-24 47 -23 72 -30 82 -24 10 8 9 9 -4 5 -9 -3 -18 -3 -20 1 -5 12 -131 62
-171 69 -21 3 -40 10 -43 14 -7 13 -32 11 -40 -2z"/>
<path d="M10160 11404 c0 -14 4 -23 10 -19 6 4 7 11 4 17 -4 6 0 14 7 19 11 7
10 9 -3 9 -13 0 -18 -8 -18 -26z"/>
<path d="M9986 11398 c5 -8 1 -9 -12 -4 -14 5 -16 4 -7 -5 6 -6 16 -8 22 -5
14 9 14 26 0 26 -5 0 -7 -5 -3 -12z"/>
<path d="M10035 11401 c-16 -3 -25 -9 -20 -13 6 -3 24 0 40 7 33 15 27 16 -20
6z"/>
<path d="M10208 11393 c7 -3 16 -2 19 1 4 3 -2 6 -13 5 -11 0 -14 -3 -6 -6z"/>
<path d="M9080 11385 c0 -6 5 -16 11 -22 8 -8 8 -17 -1 -33 -6 -12 -10 -24 -8
-26 3 -2 12 12 21 32 10 19 13 33 8 29 -5 -3 -14 3 -20 12 -6 10 -11 13 -11 8z"/>
<path d="M10048 11373 c6 -2 18 -2 25 0 6 3 1 5 -13 5 -14 0 -19 -2 -12 -5z"/>
<path d="M10348 11373 c7 -3 16 -2 19 1 4 3 -2 6 -13 5 -11 0 -14 -3 -6 -6z"/>
<path d="M8510 11353 c0 -12 4 -24 9 -27 11 -7 22 -76 22 -130 -1 -29 2 -37
10 -29 7 7 9 28 5 55 -9 67 -12 96 -15 126 -1 15 -5 21 -8 13 -5 -11 -7 -11
-14 0 -6 10 -9 8 -9 -8z"/>
<path d="M10178 11363 c7 -3 16 -2 19 1 4 3 -2 6 -13 5 -11 0 -14 -3 -6 -6z"/>
<path d="M12357 11343 c-4 -3 -7 -16 -7 -27 1 -21 1 -21 15 -2 8 11 15 23 15
28 0 10 -14 11 -23 1z"/>
<path d="M10500 11325 c-14 -8 -19 -14 -12 -15 7 0 10 -4 7 -10 -8 -14 1 -13
25 3 16 9 22 9 28 0 5 -8 13 -9 22 -3 13 8 12 10 -3 10 -10 0 -16 4 -13 9 4 5
-4 7 -16 3 -14 -3 -19 -2 -14 6 9 15 7 15 -24 -3z"/>
<path d="M12345 11278 c-8 -28 -14 -123 -5 -98 4 14 8 42 9 62 1 20 7 39 14
41 9 4 9 6 -1 6 -7 1 -14 -5 -17 -11z"/>
<path d="M9785 11220 c3 -5 11 -10 16 -10 6 0 7 5 4 10 -3 6 -11 10 -16 10 -6
0 -7 -4 -4 -10z"/>
<path d="M9767 11191 c2 -8 -2 -11 -11 -8 -15 6 -46 -23 -65 -61 -10 -18 -10
-27 0 -38 11 -14 14 -13 22 1 6 11 5 21 -1 27 -12 12 26 61 39 52 5 -3 19 5
31 17 17 16 18 20 6 16 -9 -3 -19 -3 -21 1 -2 4 -2 1 0 -7z"/>
<path d="M10948 11153 c7 -3 16 -2 19 1 4 3 -2 6 -13 5 -11 0 -14 -3 -6 -6z"/>
<path d="M8555 11130 c-3 -5 -1 -10 4 -10 6 0 11 5 11 10 0 6 -2 10 -4 10 -3
0 -8 -4 -11 -10z"/>
<path d="M10998 11133 c7 -3 16 -2 19 1 4 3 -2 6 -13 5 -11 0 -14 -3 -6 -6z"/>
<path d="M11165 11130 c-3 -6 1 -7 9 -4 18 7 21 14 7 14 -6 0 -13 -4 -16 -10z"/>
<path d="M11089 11117 c5 -5 21 -7 37 -5 27 3 26 4 -8 9 -22 3 -34 1 -29 -4z"/>
<path d="M8551 11094 c0 -11 3 -14 6 -6 3 7 2 16 -1 19 -3 4 -6 -2 -5 -13z"/>
<path d="M8571 11094 c0 -11 3 -14 6 -6 3 7 2 16 -1 19 -3 4 -6 -2 -5 -13z"/>
<path d="M10978 11103 c7 -3 16 -2 19 1 4 3 -2 6 -13 5 -11 0 -14 -3 -6 -6z"/>
<path d="M8592 10965 c0 -16 2 -22 5 -12 2 9 2 23 0 30 -3 6 -5 -1 -5 -18z"/>
<path d="M10520 10810 c8 -5 20 -10 25 -10 6 0 3 5 -5 10 -8 5 -19 10 -25 10
-5 0 -3 -5 5 -10z"/>
<path d="M9733 10758 c2 -7 11 -12 20 -12 18 2 31 -22 17 -31 -6 -4 -10 -12
-10 -18 0 -7 4 -6 10 3 8 13 15 10 41 -18 50 -54 46 -28 -6 33 -43 50 -83 74
-72 43z"/>
<path d="M9780 10681 c0 -5 7 -15 17 -22 15 -13 15 -12 4 9 -12 23 -21 28 -21
13z"/>
<path d="M9835 10623 c4 -16 2 -22 -5 -18 -12 8 -13 -5 -1 -24 7 -10 11 -5 16
18 3 17 11 31 17 31 16 0 0 13 -18 16 -12 2 -14 -3 -9 -23z"/>
<path d="M9871 10611 c-9 -6 -10 -14 -3 -27 5 -11 8 -31 6 -46 -1 -16 2 -28 7
-28 6 0 7 6 3 13 -6 9 -4 9 8 -1 10 -8 17 -9 20 -3 2 7 14 5 32 -4 41 -22 53
-18 22 6 -14 11 -30 17 -36 14 -5 -3 -10 -2 -10 4 0 6 -6 8 -14 5 -8 -3 -17
-1 -21 5 -3 7 0 8 10 5 11 -5 14 -2 9 10 -3 9 -10 16 -15 16 -5 0 -9 5 -9 10
0 20 21 9 30 -15 5 -14 15 -25 22 -24 10 0 10 2 1 6 -7 2 -13 9 -13 14 0 6 6
7 13 3 6 -4 1 5 -12 19 -27 30 -30 31 -50 18z"/>
<path d="M9956 10556 c6 -16 53 -50 60 -43 3 2 -11 16 -31 31 -20 16 -32 21
-29 12z"/>
<path d="M10060 10470 c0 -5 5 -10 10 -10 6 0 10 5 10 10 0 6 -4 10 -10 10 -5
0 -10 -4 -10 -10z"/>
<path d="M10095 10441 c-16 -6 -12 -9 20 -15 22 -4 49 -10 60 -13 20 -5 20 -5
1 10 -11 8 -28 12 -39 9 -14 -3 -18 -1 -13 6 8 13 0 14 -29 3z"/>
<path d="M10176 10385 c4 -8 10 -15 15 -15 5 0 9 7 9 15 0 8 -7 15 -15 15 -9
0 -12 -6 -9 -15z"/>
<path d="M10222 10380 c-9 -15 -8 -17 9 -13 25 7 33 19 16 26 -8 3 -18 -3 -25
-13z"/>
<path d="M9850 10369 c-12 -8 -10 -9 9 -7 13 2 26 -3 29 -10 2 -7 -2 -13 -9
-11 -24 3 -39 -1 -39 -9 0 -12 31 -8 55 6 20 12 20 12 1 27 -23 18 -26 18 -46
4z"/>
<path d="M10260 10369 l-25 -10 23 -13 c12 -6 19 -16 15 -21 -4 -4 1 -5 11 -1
12 4 23 1 29 -6 6 -9 7 -7 3 6 -6 17 -2 18 36 13 27 -4 37 -2 27 4 -7 5 -26 9
-41 9 -16 0 -28 4 -28 10 0 5 -7 6 -17 3 -11 -4 -14 -3 -9 5 8 14 9 14 -24 1z
m30 -19 c8 -5 11 -10 5 -10 -5 0 -17 5 -25 10 -8 5 -10 10 -5 10 6 0 17 -5 25
-10z"/>
<path d="M10042 10348 c7 -7 22 -20 33 -28 19 -14 19 -14 5 5 -17 23 -32 35
-43 35 -5 0 -2 -6 5 -12z"/>
<path d="M10140 10350 c0 -5 7 -10 15 -10 8 0 15 5 15 10 0 6 -7 10 -15 10 -8
0 -15 -4 -15 -10z"/>
<path d="M10235 10331 c-3 -5 -1 -12 5 -16 5 -3 10 1 10 9 0 18 -6 21 -15 7z"/>
<path d="M10400 10320 c0 -5 5 -10 10 -10 6 0 10 5 10 10 0 6 -4 10 -10 10 -5
0 -10 -4 -10 -10z"/>
<path d="M10436 10305 c4 -10 0 -15 -15 -15 -12 0 -21 -4 -21 -10 0 -5 9 -10
20 -10 11 0 20 4 20 8 0 10 83 8 125 -3 23 -6 27 -5 19 4 -6 7 -37 15 -68 18
-31 3 -59 10 -62 14 -9 15 -24 10 -18 -6z"/>
<path d="M10350 10280 c0 -5 5 -10 10 -10 6 0 10 5 10 10 0 6 -4 10 -10 10 -5
0 -10 -4 -10 -10z"/>
<path d="M10613 10283 c9 -2 17 -8 17 -12 0 -5 12 -8 26 -8 18 0 22 2 13 8
-12 7 -12 9 0 9 8 0 11 3 8 6 -4 4 -13 1 -22 -6 -10 -8 -15 -9 -15 -1 0 6 -10
10 -22 10 -17 -1 -19 -2 -5 -6z"/>
<path d="M10320 10255 c0 -8 5 -15 10 -15 6 0 10 7 10 15 0 8 -4 15 -10 15 -5
0 -10 -7 -10 -15z"/>
<path d="M10380 10255 c0 -8 9 -15 20 -15 24 0 27 15 4 24 -22 9 -24 8 -24 -9z"/>
<path d="M10595 10240 c3 -5 8 -10 11 -10 2 0 4 5 4 10 0 6 -5 10 -11 10 -5 0
-7 -4 -4 -10z"/>
<path d="M9841 10183 c0 -42 3 -52 9 -38 12 28 12 95 0 95 -6 0 -10 -25 -9
-57z"/>
<path d="M10458 10213 c7 -3 16 -2 19 1 4 3 -2 6 -13 5 -11 0 -14 -3 -6 -6z"/>
<path d="M9702 10130 c1 -17 4 -28 7 -24 9 8 8 54 0 54 -4 0 -7 -14 -7 -30z"/>
<path d="M9743 10153 c-15 -5 -17 -23 -4 -23 5 0 11 7 15 15 3 8 4 15 3 14 -1
0 -8 -3 -14 -6z"/>
<path d="M9871 10098 c-1 -38 3 -68 7 -68 5 0 7 26 5 58 -6 83 -11 87 -12 10z"/>
<path d="M9841 10093 c-1 -12 4 -25 9 -28 12 -7 12 2 0 30 -8 19 -9 19 -9 -2z"/>
<path d="M10400 10109 c0 -4 6 -21 14 -40 13 -31 14 -31 21 -10 4 12 4 25 1
28 -3 4 -6 0 -6 -8 -1 -8 -7 -3 -15 11 -8 14 -14 22 -15 19z"/>
<path d="M10302 10066 c7 -8 15 -12 17 -11 5 6 -10 25 -20 25 -5 0 -4 -6 3
-14z"/>
<path d="M9841 10034 c0 -11 3 -14 6 -6 3 7 2 16 -1 19 -3 4 -6 -2 -5 -13z"/>
<path d="M10400 10030 c0 -13 -7 -20 -20 -20 -11 0 -20 -5 -20 -11 0 -6 6 -9
14 -6 7 3 18 1 23 -4 12 -12 43 14 43 34 0 7 -5 4 -11 -5 -15 -26 -27 -22 -21
7 2 14 2 25 -2 25 -3 0 -6 -9 -6 -20z"/>
<path d="M10440 9994 c-21 -43 -23 -51 -7 -31 15 18 34 7 22 -12 -3 -5 -1 -12
4 -15 11 -7 21 30 11 41 -5 4 -10 17 -12 27 -3 17 -5 15 -18 -10z"/>
<path d="M12032 9945 c0 -16 2 -22 5 -12 2 9 2 23 0 30 -3 6 -5 -1 -5 -18z"/>
<path d="M10492 9889 c-13 -20 -12 -21 4 -15 13 5 24 0 37 -16 14 -18 16 -19
8 -3 -5 11 -15 28 -23 38 -12 16 -14 16 -26 -4z"/>
<path d="M10530 9641 c0 -22 5 -43 10 -46 6 -4 10 12 10 39 0 25 -4 46 -10 46
-5 0 -10 -18 -10 -39z"/>
<path d="M10795 9650 c-3 -5 -1 -10 4 -10 6 0 11 5 11 10 0 6 -2 10 -4 10 -3
0 -8 -4 -11 -10z"/>
<path d="M10732 9589 c-12 -18 -11 -20 5 -17 10 2 19 11 21 21 5 23 -10 21
-26 -4z"/>
<path d="M10788 9576 c-22 -16 -23 -26 -3 -26 8 0 15 -6 15 -12 0 -9 4 -8 10
2 13 21 12 39 -1 20 -9 -12 -10 -11 -6 8 3 12 4 22 4 22 -1 0 -10 -7 -19 -14z"/>
<path d="M10720 9546 c0 -9 5 -16 10 -16 6 0 10 4 10 9 0 6 -4 13 -10 16 -5 3
-10 -1 -10 -9z"/>
<path d="M10522 9495 c0 -16 2 -22 5 -12 2 9 2 23 0 30 -3 6 -5 -1 -5 -18z"/>
<path d="M10826 9501 c-5 -8 -3 -16 4 -21 6 -4 10 -16 8 -26 -2 -14 -10 -18
-31 -16 l-27 3 0 -80 c0 -47 4 -81 10 -81 9 0 13 41 12 105 -1 19 -1 19 5 0 5
-17 7 -16 18 10 l12 30 11 -40 c7 -22 12 -53 12 -68 0 -35 25 -65 34 -42 3 8
1 15 -4 15 -6 0 -10 16 -10 35 0 19 -4 35 -10 35 -5 0 -7 13 -3 32 4 20 3 29
-4 25 -6 -4 -13 0 -16 7 -3 8 -2 16 2 18 5 2 3 19 -4 37 -8 24 -14 31 -19 22z
m-6 -81 c0 -5 -4 -10 -10 -10 -5 0 -10 5 -10 10 0 6 5 10 10 10 6 0 10 -4 10
-10z"/>
<path d="M10823 9373 c-7 -15 -13 -42 -13 -60 0 -26 4 -33 20 -33 17 0 20 7
20 40 0 22 -4 40 -9 40 -5 0 -7 9 -4 20 7 28 0 25 -14 -7z"/>
<path d="M10626 9301 c-4 -7 -5 -15 -2 -18 9 -9 19 4 14 18 -4 11 -6 11 -12 0z"/>
<path d="M10570 9270 c0 -5 5 -10 10 -10 6 0 10 5 10 10 0 6 -4 10 -10 10 -5
0 -10 -4 -10 -10z"/>
<path d="M10610 9240 c0 -11 5 -20 10 -20 6 0 10 9 10 20 0 11 -4 20 -10 20
-5 0 -10 -9 -10 -20z"/>
<path d="M10565 9200 c-6 -19 0 -128 11 -177 2 -13 10 -23 17 -23 9 0 13 19
13 63 1 40 -1 47 -3 20 -2 -24 -9 -43 -15 -43 -6 0 -9 32 -6 90 3 86 -3 113
-17 70z"/>
<path d="M10918 9100 c2 -16 9 -30 14 -30 6 0 7 7 4 16 -3 9 -6 22 -6 30 0 8
-4 14 -8 14 -5 0 -7 -13 -4 -30z"/>
<path d="M10623 9080 c0 -25 2 -35 4 -22 2 12 2 32 0 45 -2 12 -4 2 -4 -23z"/>
<path d="M10901 9080 c0 -8 4 -22 9 -30 12 -18 12 -2 0 25 -6 13 -9 15 -9 5z"/>
<path d="M10933 8980 c0 -25 2 -35 4 -22 2 12 2 32 0 45 -2 12 -4 2 -4 -23z"/>
<path d="M10621 8918 c14 -94 18 -104 14 -34 -3 38 -9 74 -13 78 -5 5 -6 -13
-1 -44z"/>
<path d="M10916 8898 c2 -32 6 -86 9 -120 3 -49 2 -55 -5 -28 -6 25 -7 14 -3
-37 3 -40 2 -73 -3 -73 -8 0 -10 -80 -4 -140 4 -32 18 140 25 290 3 70 1 109
-5 100 -6 -10 -10 -3 -13 25 -2 22 -3 14 -1 -17z"/>
<path d="M10880 8920 c0 -5 5 -10 10 -10 6 0 10 5 10 10 0 6 -4 10 -10 10 -5
0 -10 -4 -10 -10z"/>
<path d="M9042 8870 c0 -14 2 -19 5 -12 2 6 2 18 0 25 -3 6 -5 1 -5 -13z"/>
<path d="M9071 8854 c0 -11 3 -14 6 -6 3 7 2 16 -1 19 -3 4 -6 -2 -5 -13z"/>
<path d="M9091 8818 c-1 -9 -4 -24 -7 -33 -4 -9 -3 -15 2 -14 20 3 28 -2 15
-10 -12 -8 -12 -12 -2 -24 7 -9 9 -26 5 -41 -5 -20 -2 -26 11 -26 12 0 15 -5
10 -20 -3 -10 1 -32 10 -47 13 -23 15 -24 10 -5 -4 13 -1 30 7 40 11 15 11 16
-3 4 -15 -11 -17 -10 -17 10 -1 54 -12 119 -26 150 -8 18 -15 25 -15 16z"/>
<path d="M10702 8804 c9 -3 19 -16 21 -30 4 -21 4 -21 3 3 -1 20 -7 28 -21 30
-14 1 -15 0 -3 -3z"/>
<path d="M10892 8775 c0 -16 2 -22 5 -12 2 9 2 23 0 30 -3 6 -5 -1 -5 -18z"/>
<path d="M9087 8713 c-4 -3 -7 -13 -7 -22 1 -13 3 -13 11 2 11 19 8 33 -4 20z"/>
<path d="M10710 8683 c0 -5 5 -15 10 -23 8 -12 10 -11 10 8 0 12 -4 22 -10 22
-5 0 -10 -3 -10 -7z"/>
<path d="M9165 8565 c2 -38 1 -58 -2 -43 -2 14 -12 32 -20 40 -15 11 -16 11
-9 -7 4 -11 13 -32 18 -47 5 -16 13 -28 16 -28 4 0 7 -23 8 -51 0 -37 5 -54
17 -61 9 -5 17 -17 18 -26 0 -14 2 -13 9 3 11 26 12 44 1 26 -6 -9 -12 2 -19
35 -6 27 -11 56 -11 64 -1 8 -2 40 -4 70 -2 30 -8 64 -14 75 -10 16 -11 7 -8
-50z"/>
<path d="M10933 8565 c0 -33 2 -45 4 -27 2 18 2 45 0 60 -2 15 -4 0 -4 -33z"/>
<path d="M10882 8546 c-2 -30 1 -57 6 -60 5 -3 9 22 9 54 0 75 -11 79 -15 6z"/>
<path d="M9190 8513 c0 -4 5 -15 10 -23 8 -13 10 -13 10 2 0 9 -4 20 -10 23
-5 3 -10 3 -10 -2z"/>
<path d="M10946 8475 c4 -16 11 -34 16 -40 7 -7 8 -1 3 15 -12 40 -26 59 -19
25z"/>
<path d="M9205 8460 c3 -5 8 -10 11 -10 2 0 4 5 4 10 0 6 -5 10 -11 10 -5 0
-7 -4 -4 -10z"/>
<path d="M9226 8427 c3 -10 9 -15 12 -12 3 3 0 11 -7 18 -10 9 -11 8 -5 -6z"/>
<path d="M10897 8433 c-12 -12 -7 -33 8 -33 17 0 19 9 7 28 -5 7 -11 9 -15 5z"/>
<path d="M10770 8413 c-9 -10 -14 -27 -12 -38 2 -17 0 -16 -12 5 -17 28 -22 9
-5 -21 8 -16 13 -18 25 -8 8 6 14 20 14 30 0 11 5 19 10 19 6 0 10 7 10 15 0
20 -12 19 -30 -2z"/>
<path d="M9235 8371 c0 -19 4 -27 13 -24 13 6 15 14 6 37 -10 25 -19 19 -19
-13z"/>
<path d="M10785 8363 c-3 -15 -11 -31 -16 -34 -10 -6 25 -77 45 -91 5 -3 20 1
32 10 25 18 31 34 12 30 -21 -5 -20 29 2 35 17 4 20 0 22 -31 l1 -37 4 34 c6
45 -4 52 -51 36 -39 -14 -71 -10 -60 6 3 5 9 7 13 5 4 -3 8 11 8 30 1 41 -2
43 -12 7z m55 -91 c0 -15 -11 -21 -27 -15 -12 5 -12 7 -1 14 17 11 28 11 28 1z"/>
<path d="M10895 8370 c-4 -7 -3 -16 3 -22 14 -14 47 -6 47 12 0 18 -40 26 -50
10z"/>
<path d="M10965 8369 c-4 -6 -4 -13 -1 -16 3 -4 6 -1 6 6 0 7 5 9 10 6 6 -3
10 -1 10 4 0 14 -17 14 -25 0z"/>
<path d="M12246 8355 c-9 -26 -7 -32 5 -12 6 10 9 21 6 23 -2 3 -7 -2 -11 -11z"/>
<path d="M9190 8326 c0 -22 3 -27 11 -19 8 8 8 16 0 30 -9 16 -10 14 -11 -11z"/>
<path d="M10975 8340 c-3 -5 -4 -14 0 -19 3 -5 1 -12 -5 -16 -5 -3 -10 -11
-10 -18 0 -6 7 -2 16 9 15 19 15 19 11 -1 -3 -11 -8 -27 -11 -36 -4 -9 -2 -16
6 -16 7 0 14 10 14 21 1 12 5 32 8 46 3 14 4 19 0 12 -3 -6 -10 -9 -15 -6 -6
3 -5 11 2 20 7 9 8 14 1 14 -6 0 -14 -4 -17 -10z"/>
<path d="M9255 8320 c5 -9 2 -10 -13 -6 -18 6 -20 2 -23 -38 -2 -25 0 -42 5
-38 5 3 7 -5 4 -16 -4 -12 -2 -25 3 -28 8 -4 14 25 10 49 0 4 3 7 8 7 5 0 8
-27 8 -59 -2 -55 -3 -58 -14 -33 l-12 27 6 -30 c3 -16 9 -35 14 -40 4 -6 8
-20 8 -30 0 -73 4 -99 11 -80 5 11 6 31 3 45 -5 24 -5 25 10 5 9 -11 17 -29
17 -40 1 -11 7 -33 16 -50 14 -29 14 -29 9 -3 -6 33 3 58 21 58 8 0 14 5 14
10 0 6 -11 10 -25 10 -22 0 -25 5 -25 33 0 24 -3 28 -10 17 -9 -13 -10 -13
-10 0 0 13 -1 13 -10 0 -7 -10 -10 -11 -10 -2 0 7 7 15 15 18 8 4 15 14 14 23
0 10 -2 11 -6 3 -5 -13 -23 -7 -23 9 0 6 5 7 10 4 6 -3 10 -1 10 4 0 6 -6 11
-12 11 -9 0 -12 16 -10 55 3 45 1 55 -12 55 -9 0 -16 5 -16 10 0 6 7 10 15 10
18 0 20 26 3 36 -7 5 -8 3 -3 -6z"/>
<path d="M12238 8279 c-2 -22 0 -43 4 -45 4 -3 8 15 8 40 0 57 -7 60 -12 5z"/>
<path d="M9281 8280 c0 -8 4 -22 9 -30 12 -18 12 -2 0 25 -6 13 -9 15 -9 5z"/>
<path d="M11016 8274 c-10 -25 -7 -34 9 -34 8 0 15 5 15 11 0 5 -5 7 -11 3 -8
-4 -9 0 -4 15 7 24 0 29 -9 5z"/>
<path d="M12203 8272 c-6 -10 -7 -25 -2 -37 8 -18 8 -17 6 5 -1 16 3 24 11 23
13 -3 17 13 4 21 -4 2 -13 -3 -19 -12z"/>
<path d="M12217 8217 c-4 -10 -7 -27 -7 -37 0 -9 -7 -23 -15 -30 -10 -9 -15
-9 -15 -1 0 6 -3 11 -7 11 -5 0 -9 -32 -10 -71 -1 -59 1 -70 14 -65 8 3 17 6
19 6 3 0 2 6 -3 13 -4 6 -8 29 -9 50 0 20 3 33 6 27 9 -14 42 66 38 92 -3 21
-4 21 -11 5z"/>
<path d="M9296 8205 c4 -11 8 -31 9 -45 1 -14 3 -31 4 -38 0 -7 5 -11 10 -7 5
3 11 -3 13 -12 2 -11 6 -14 10 -7 4 6 -6 37 -23 70 -16 32 -26 50 -23 39z"/>
<path d="M12174 8204 c3 -9 6 -23 6 -32 1 -16 1 -16 10 0 11 18 3 48 -12 48
-6 0 -7 -7 -4 -16z"/>
<path d="M12147 8176 c-4 -10 -1 -13 9 -9 15 6 19 23 5 23 -5 0 -11 -7 -14
-14z"/>
<path d="M11066 8159 c4 -8 -1 -9 -17 -4 -19 5 -21 4 -9 -4 12 -9 13 -13 2
-20 -10 -6 -12 -21 -7 -55 4 -25 11 -46 15 -46 10 0 7 40 -3 57 -9 14 2 43 15
43 6 0 8 -7 4 -15 -7 -18 5 -20 22 -3 17 17 15 29 -3 22 -8 -4 -15 -2 -15 4 0
6 5 12 12 14 7 3 5 7 -6 11 -11 4 -15 3 -10 -4z"/>
<path d="M10898 8153 c7 -3 16 -2 19 1 4 3 -2 6 -13 5 -11 0 -14 -3 -6 -6z"/>
<path d="M10958 8154 c-4 -5 -3 -25 2 -44 5 -24 8 -28 9 -12 1 12 6 22 11 22
6 0 10 10 10 23 0 16 -3 18 -9 8 -7 -11 -9 -11 -13 0 -2 7 -7 9 -10 3z"/>
<path d="M12124 8138 c-4 -7 -14 -23 -22 -35 -10 -17 -11 -23 -2 -23 6 0 14 9
17 20 6 23 19 26 26 8 3 -7 6 -1 6 15 1 28 -12 36 -25 15z"/>
<path d="M11100 8100 c0 -5 -8 -10 -17 -11 -13 0 -10 -4 8 -12 40 -18 58 -37
52 -53 -3 -9 0 -12 8 -9 8 3 23 -6 33 -20 10 -14 24 -25 29 -25 6 0 -3 15 -21
33 -18 18 -32 38 -32 45 0 7 -5 12 -10 12 -6 0 -15 11 -20 25 -9 24 -30 35
-30 15z"/>
<path d="M12196 8085 c-9 -26 -7 -32 5 -12 6 10 9 21 6 23 -2 3 -7 -2 -11 -11z"/>
<path d="M9345 8080 c-3 -5 -1 -10 4 -10 6 0 11 5 11 10 0 6 -2 10 -4 10 -3 0
-8 -4 -11 -10z"/>
<path d="M11012 8040 c0 -14 2 -19 5 -12 2 6 2 18 0 25 -3 6 -5 1 -5 -13z"/>
<path d="M12080 8050 c0 -5 13 -10 29 -10 17 0 33 5 36 10 4 6 -8 10 -29 10
-20 0 -36 -4 -36 -10z"/>
<path d="M11080 8040 c0 -5 11 -9 24 -8 14 1 22 6 20 10 -7 12 -44 10 -44 -2z"/>
<path d="M10967 7996 c17 -23 33 -25 33 -5 0 6 -5 7 -10 4 -6 -3 -13 1 -16 9
-3 9 -10 16 -16 16 -5 0 -1 -11 9 -24z"/>
<path d="M12043 8005 c-3 -9 -3 -18 -1 -21 3 -3 8 4 11 16 6 23 -1 27 -10 5z"/>
<path d="M11040 8001 c0 -6 -7 -8 -15 -5 -10 4 -15 0 -15 -11 0 -9 4 -14 9
-11 5 4 8 -9 7 -29 -2 -22 2 -39 12 -47 13 -11 15 -10 9 5 -3 9 -2 17 3 17 13
0 13 77 0 85 -5 3 -10 2 -10 -4z"/>
<path d="M11078 8003 c6 -2 18 -2 25 0 6 3 1 5 -13 5 -14 0 -19 -2 -12 -5z"/>
<path d="M12080 7990 c14 -27 12 -34 -5 -20 -16 13 -20 3 -7 -18 5 -7 15 -10
24 -7 18 7 12 51 -8 59 -11 4 -12 1 -4 -14z"/>
<path d="M11167 7961 c18 -26 31 -35 35 -28 9 15 10 33 2 24 -4 -3 -15 5 -26
18 -32 41 -42 28 -11 -14z"/>
<path d="M12110 7990 c0 -5 5 -10 10 -10 6 0 10 5 10 10 0 6 -4 10 -10 10 -5
0 -10 -4 -10 -10z"/>
<path d="M12141 7984 c0 -11 3 -14 6 -6 3 7 2 16 -1 19 -3 4 -6 -2 -5 -13z"/>
<path d="M12011 7967 c-12 -16 -5 -47 11 -47 7 0 6 5 -1 13 -8 10 -7 17 1 25
6 6 9 14 6 17 -3 3 -10 -1 -17 -8z"/>
<path d="M11125 7942 c-3 -18 -11 -30 -16 -27 -5 4 -4 -6 1 -21 8 -20 7 -32
-3 -48 -12 -18 -12 -23 0 -35 13 -12 14 -11 8 10 -7 21 -6 22 9 10 23 -19 25
-14 16 49 -8 58 -5 74 10 50 5 -8 11 -12 14 -10 2 3 -4 16 -14 29 l-18 24 -7
-31z"/>
<path d="M12040 7953 c0 -5 5 -15 10 -23 8 -12 10 -11 10 8 0 12 -4 22 -10 22
-5 0 -10 -3 -10 -7z"/>
<path d="M11233 7938 c4 -12 2 -18 -8 -18 -7 0 -16 -4 -19 -9 -3 -4 6 -6 19
-3 33 6 39 17 18 33 -15 12 -16 12 -10 -3z"/>
<path d="M11980 7929 c0 -6 -39 -50 -87 -98 -48 -47 -80 -80 -70 -72 14 11 17
11 17 -1 0 -8 -5 -19 -12 -26 -7 -7 -8 -12 -2 -12 13 1 47 50 34 50 -6 0 -8 5
-5 10 4 6 15 8 25 5 10 -3 22 0 26 6 5 9 2 10 -9 6 -10 -3 -17 -4 -17 -2 0 12
46 49 63 50 10 1 26 9 35 19 15 15 15 18 2 26 -13 9 -8 14 11 12 4 -1 5 8 2
18 -6 22 -13 27 -13 9z m-10 -49 c0 -5 -5 -10 -11 -10 -5 0 -7 5 -4 10 3 6 8
10 11 10 2 0 4 -4 4 -10z"/>
<path d="M12077 7924 c-1 -2 -1 -21 1 -44 4 -41 4 -41 17 -16 17 32 16 63 -2
63 -7 0 -14 -2 -16 -3z"/>
<path d="M11255 7900 c-3 -5 2 -10 13 -10 19 0 102 -74 102 -91 0 -6 9 -7 21
-4 16 5 20 3 17 -11 -2 -9 4 -19 12 -21 13 -4 13 -3 0 6 -13 9 -13 11 3 11 9
0 17 -6 17 -13 0 -20 86 -71 95 -56 4 5 -1 9 -9 9 -9 0 -16 5 -16 10 0 6 -8
10 -17 10 -16 0 -16 2 -3 11 12 8 11 9 -6 7 -11 -2 -21 1 -22 6 -1 12 -59 46
-79 46 -9 0 -14 3 -10 6 6 6 -91 94 -104 94 -4 0 -11 -4 -14 -10z"/>
<path d="M11067 7886 c-4 -10 0 -14 12 -13 11 1 17 7 14 14 -7 17 -20 17 -26
-1z"/>
<path d="M12000 7846 c0 -19 -6 -36 -12 -39 -7 -2 -9 -8 -5 -13 5 -5 15 0 24
11 14 19 15 18 9 -15 -5 -24 -4 -30 3 -20 20 33 18 110 -4 110 -10 0 -15 -10
-15 -34z"/>
<path d="M11200 7859 c0 -5 5 -7 10 -4 6 3 10 8 10 11 0 2 -4 4 -10 4 -5 0
-10 -5 -10 -11z"/>
<path d="M11260 7860 c0 -5 5 -10 10 -10 6 0 10 5 10 10 0 6 -4 10 -10 10 -5
0 -10 -4 -10 -10z"/>
<path d="M11285 7840 c-3 -6 1 -7 9 -4 18 7 21 14 7 14 -6 0 -13 -4 -16 -10z"/>
<path d="M11170 7820 c0 -11 5 -20 10 -20 6 0 10 9 10 20 0 11 -4 20 -10 20
-5 0 -10 -9 -10 -20z"/>
<path d="M12040 7800 c-6 -23 -18 -44 -26 -47 -7 -3 -14 -12 -14 -21 0 -28 39
18 46 54 3 18 9 32 13 31 3 -1 7 2 9 8 2 5 -1 11 -7 13 -5 2 -15 -15 -21 -38z"/>
<path d="M11916 7821 c-3 -4 -3 -17 0 -29 7 -25 34 -19 34 8 0 19 -26 35 -34
21z"/>
<path d="M11300 7810 c0 -5 7 -10 15 -10 8 0 15 5 15 10 0 6 -7 10 -15 10 -8
0 -15 -4 -15 -10z"/>
<path d="M11130 7785 c0 -8 5 -15 10 -15 6 0 10 7 10 15 0 8 -4 15 -10 15 -5
0 -10 -7 -10 -15z"/>
<path d="M11356 7775 c10 -8 23 -15 28 -15 6 0 1 7 -10 15 -10 8 -23 15 -28
15 -6 0 -1 -7 10 -15z"/>
<path d="M11174 7764 c5 -12 2 -15 -9 -10 -9 3 -13 2 -10 -4 9 -15 32 -12 38
4 6 15 -1 26 -16 26 -5 0 -6 -7 -3 -16z"/>
<path d="M11280 7770 c0 -6 7 -10 15 -10 8 0 15 2 15 4 0 2 -7 6 -15 10 -8 3
-15 1 -15 -4z"/>
<path d="M11187 7739 c-17 -19 -16 -21 13 -52 16 -17 30 -36 30 -41 0 -5 6 -3
14 3 12 10 17 8 25 -8 6 -11 8 -27 5 -35 -3 -9 -1 -16 6 -16 6 0 8 5 5 10 -3
6 1 13 9 16 23 9 19 34 -5 34 -14 0 -19 5 -16 14 6 14 -16 16 -29 4 -6 -7 -54
39 -54 52 0 4 14 10 30 14 17 3 30 10 30 16 0 17 -44 9 -63 -11z"/>
<path d="M11923 7732 c30 -31 35 -52 12 -52 -8 0 -15 5 -15 11 0 5 -5 7 -12 3
-9 -6 -9 -9 0 -12 7 -2 12 -14 12 -27 0 -30 11 -37 33 -20 10 7 15 19 11 29
-5 12 -2 15 10 10 14 -6 14 -3 1 22 -8 16 -15 37 -15 47 0 12 -8 17 -32 17
l-32 0 27 -28z m27 -83 c0 -6 -4 -7 -10 -4 -5 3 -10 11 -10 16 0 6 5 7 10 4 6
-3 10 -11 10 -16z"/>
<path d="M11520 7744 c0 -17 38 -33 75 -33 l40 1 -38 9 c-21 5 -47 14 -58 19
-10 6 -19 8 -19 4z"/>
<path d="M11745 7728 c-11 -7 -40 -15 -65 -19 l-45 -6 40 -2 c22 0 52 5 67 13
30 16 46 9 21 -9 -11 -8 -13 -14 -5 -19 7 -4 12 -3 12 2 0 5 9 12 20 15 13 3
18 10 14 21 -7 19 -31 20 -59 4z"/>
<path d="M11864 7729 c-10 -17 13 -36 27 -22 12 12 4 33 -11 33 -5 0 -12 -5
-16 -11z"/>
<path d="M11472 7691 c-9 -5 -4 -8 16 -7 17 1 28 4 25 9 -6 9 -25 9 -41 -2z"/>
<path d="M11560 7696 c0 -2 7 -6 15 -10 8 -3 15 -1 15 4 0 6 -7 10 -15 10 -8
0 -15 -2 -15 -4z"/>
<path d="M11840 7690 c0 -5 5 -10 11 -10 5 0 7 5 4 10 -3 6 -8 10 -11 10 -2 0
-4 -4 -4 -10z"/>
<path d="M11330 7670 c0 -5 7 -10 15 -10 8 0 15 5 15 10 0 6 -7 10 -15 10 -8
0 -15 -4 -15 -10z"/>
<path d="M11318 7593 c22 -8 13 -25 -10 -17 -23 6 -23 6 -3 -13 15 -15 21 -17
23 -6 2 7 7 13 12 13 4 0 10 6 13 13 3 7 -5 12 -22 13 -14 1 -20 -1 -13 -3z"/>
<path d="M11910 7591 c0 -5 -3 -16 -6 -25 -10 -26 10 -18 23 9 9 20 8 25 -3
25 -8 0 -14 -4 -14 -9z"/>
<path d="M11844 7569 c-10 -17 13 -36 27 -22 12 12 4 33 -11 33 -5 0 -12 -5
-16 -11z"/>
<path d="M11301 7526 c12 -14 25 -26 27 -26 9 0 -25 44 -37 48 -7 2 -3 -7 10
-22z"/>
<path d="M11349 7512 c13 -24 32 -25 39 -2 3 8 0 10 -7 6 -7 -4 -19 -2 -28 6
-15 12 -15 11 -4 -10z"/>
<path d="M11854 7522 c-5 -4 -11 -16 -13 -27 -3 -19 -2 -19 16 -2 11 9 23 14
26 10 4 -3 7 -2 7 4 0 14 -24 23 -36 15z"/>
<path d="M11410 7506 c0 -9 5 -16 10 -16 6 0 10 4 10 9 0 6 -4 13 -10 16 -5 3
-10 -1 -10 -9z"/>
<path d="M11790 7482 c0 -26 7 -45 20 -57 18 -16 20 -16 20 -2 0 10 -4 17 -10
17 -5 0 -10 18 -10 40 0 22 -4 40 -10 40 -5 0 -10 -17 -10 -38z"/>
<path d="M11855 7470 c-10 -11 -16 -22 -14 -24 2 -2 12 7 22 20 22 29 17 32
-8 4z"/>
<path d="M11395 7470 c3 -5 8 -10 11 -10 2 0 4 5 4 10 0 6 -5 10 -11 10 -5 0
-7 -4 -4 -10z"/>
<path d="M11415 7430 c10 -11 22 -17 26 -14 11 6 -15 34 -32 34 -8 0 -6 -7 6
-20z"/>
<path d="M11466 7428 c3 -5 0 -15 -6 -23 -10 -12 -9 -16 4 -21 9 -3 16 -12 16
-20 0 -8 5 -14 11 -14 5 0 7 5 4 10 -3 6 -2 10 4 10 16 0 22 -18 9 -23 -10 -3
-10 -7 1 -20 15 -18 61 -23 61 -7 0 6 -12 10 -27 10 l-28 1 25 14 c14 8 19 14
13 15 -8 0 -13 15 -13 40 0 40 -15 55 -23 23 -4 -15 -5 -15 -6 -2 -1 11 -10
17 -26 17 -13 0 -22 -5 -19 -10z m25 -41 c-8 -8 -11 -7 -11 4 0 20 13 34 18
19 3 -7 -1 -17 -7 -23z"/>
<path d="M11766 7433 c-10 -10 -7 -41 4 -48 7 -4 9 3 5 22 l-6 28 16 -28 c19
-32 27 -32 19 0 -6 22 -27 36 -38 26z"/>
<path d="M11680 7400 c0 -11 7 -20 15 -20 8 0 15 9 15 20 0 11 -7 20 -15 20
-8 0 -15 -9 -15 -20z"/>
<path d="M11766 7358 c3 -5 11 -5 17 -2 7 4 8 3 4 -2 -5 -5 -14 -9 -20 -9 -7
0 -13 -11 -14 -25 -1 -14 0 -19 3 -12 3 6 10 10 15 7 5 -4 -7 -29 -26 -58 -37
-54 -48 -87 -16 -46 28 36 55 92 52 108 -1 7 2 10 8 6 7 -4 8 0 4 11 -4 12 -3
15 5 10 8 -4 10 -2 6 8 -3 8 -14 14 -24 13 -10 -1 -16 -5 -14 -9z"/>
<path d="M11580 7350 c0 -5 5 -10 10 -10 6 0 10 5 10 10 0 6 -4 10 -10 10 -5
0 -10 -4 -10 -10z"/>
<path d="M11630 7320 c0 -22 5 -40 10 -40 6 0 10 18 10 40 0 22 -4 40 -10 40
-5 0 -10 -18 -10 -40z"/>
<path d="M11684 7336 c-3 -14 -3 -30 1 -36 4 -6 2 -17 -5 -25 -8 -10 -8 -19
-1 -34 15 -28 15 -29 -20 -47 l-31 -16 -46 44 c-43 40 -32 23 27 -44 28 -32
43 -36 34 -10 -5 14 -3 15 7 5 11 -10 20 -3 45 36 42 64 46 77 34 109 -11 27
-11 27 -20 5 -12 -33 -23 -28 -15 7 7 36 -1 40 -10 6z m46 -46 c0 -5 -4 -10
-10 -10 -5 0 -10 5 -10 10 0 6 5 10 10 10 6 0 10 -4 10 -10z m-30 -32 c0 6 5
12 10 12 6 0 5 -8 -2 -20 -9 -14 -14 -16 -20 -7 -4 7 -8 17 -8 22 0 6 5 3 10
-5 6 -10 10 -11 10 -2z"/>
<path d="M11730 7350 c0 -5 5 -10 10 -10 6 0 10 5 10 10 0 6 -4 10 -10 10 -5
0 -10 -4 -10 -10z"/>
<path d="M11583 7275 c0 -15 4 -22 10 -18 6 4 8 0 5 -8 -3 -8 3 -23 13 -33 11
-11 20 -15 20 -8 3 26 4 31 12 38 13 13 8 26 -8 20 -9 -3 -20 3 -27 14 -17 27
-25 25 -25 -5z"/>
<path d="M11550 7275 c7 -8 17 -12 22 -9 6 4 5 10 -3 15 -22 14 -33 10 -19 -6z"/>
<path d="M11686 7163 c-6 -14 -5 -15 5 -6 7 7 10 15 7 18 -3 3 -9 -2 -12 -12z"/>
</g>
</svg>
