<?xml version="1.0" standalone="no"?>
<!DOCTYPE svg PUBLIC "-//W3C//DTD SVG 20010904//EN"
 "http://www.w3.org/TR/2001/REC-SVG-20010904/DTD/svg10.dtd">
<svg version="1.0" xmlns="http://www.w3.org/2000/svg"
 width="980.000000pt" height="980.000000pt" viewBox="0 0 980.000000 980.000000"
 preserveAspectRatio="xMidYMid meet">
<defs>
    <filter id="shadow">
        <feDropShadow 
            dx="2"
            dy="3"
            stdDeviation="2"
            flood-color="#edc769"
            flood-opacity="0.5"
        />
    </filter>
</defs>
<g style="fillter:url(#shadow)" transform="translate(0.000000,980.000000) scale(0.100000,-0.100000)"
fill="#aaa" stroke="none">
<path d="M4848 9790 c-51 -15 -100 -53 -114 -87 -20 -47 -32 -226 -39 -603 -3
-179 -8 -340 -11 -357 -5 -32 -7 -33 -52 -33 -26 0 -103 -7 -170 -15 -421 -52
-908 -198 -1270 -379 -710 -356 -1352 -998 -1708 -1708 -181 -362 -327 -849
-379 -1270 -8 -67 -15 -144 -15 -170 0 -45 -1 -47 -32 -52 -18 -3 -179 -8
-358 -11 -378 -7 -556 -19 -604 -39 -42 -17 -83 -84 -92 -147 -7 -51 22 -132
59 -167 38 -35 95 -42 432 -52 182 -6 389 -13 461 -16 l131 -6 7 -111 c20
-310 138 -788 282 -1140 309 -756 926 -1445 1677 -1872 408 -233 1029 -424
1505 -464 63 -5 117 -12 120 -16 4 -4 10 -149 14 -323 10 -430 23 -622 43
-661 49 -96 211 -118 299 -41 56 50 59 77 76 694 5 180 11 330 14 333 2 3 53
9 113 14 555 45 1151 245 1678 562 222 133 424 296 670 542 336 334 512 572
700 940 238 468 387 968 424 1423 5 63 11 116 14 118 3 3 155 9 338 14 607 17
639 20 689 76 77 88 55 250 -40 299 -41 21 -208 32 -627 41 -188 4 -347 10
-354 14 -7 5 -15 51 -21 122 -35 463 -230 1096 -463 1505 -380 669 -970 1235
-1631 1566 -420 211 -969 366 -1386 393 l-106 7 -6 131 c-3 72 -10 280 -16
461 -5 182 -15 348 -21 370 -14 52 -33 73 -94 101 -52 25 -90 28 -137 14z
m497 -1506 c432 -65 701 -148 1060 -325 344 -169 608 -356 879 -619 457 -445
772 -995 930 -1625 55 -219 113 -603 92 -611 -6 -2 -222 -3 -481 -2 l-469 3
-27 146 c-70 385 -194 708 -377 984 -104 156 -210 282 -364 431 -389 376 -807
576 -1405 674 l-73 12 0 484 0 485 33 -6 c17 -3 109 -17 202 -31z m-660 9 c12
-30 19 -943 8 -943 -35 0 -270 -47 -397 -80 -441 -112 -786 -309 -1111 -635
-305 -304 -475 -572 -599 -945 -68 -206 -91 -297 -111 -435 -9 -62 -21 -116
-29 -124 -23 -23 -155 -30 -568 -30 l-388 -1 0 24 c0 40 29 251 50 371 154
856 630 1626 1323 2139 496 367 1025 577 1677 665 108 14 137 13 145 -6z m-3
-1388 c5 -16 12 -221 14 -455 3 -234 10 -448 15 -476 21 -111 158 -185 262
-140 47 20 105 81 117 124 6 21 13 233 17 510 5 404 8 472 21 472 47 0 276
-56 392 -95 349 -119 656 -315 881 -562 249 -272 438 -644 515 -1011 13 -64
24 -129 24 -144 l0 -28 -462 0 c-255 0 -481 -5 -502 -10 -106 -24 -179 -146
-146 -245 17 -53 84 -122 129 -135 20 -6 241 -13 509 -17 444 -6 472 -7 472
-24 0 -49 -46 -248 -84 -364 -226 -684 -703 -1155 -1387 -1369 -113 -36 -291
-76 -333 -76 l-23 0 -6 473 c-4 265 -12 488 -17 508 -13 45 -82 112 -135 129
-51 17 -111 7 -158 -27 -51 -36 -76 -70 -87 -119 -5 -21 -10 -248 -10 -503 l0
-464 -62 7 c-228 26 -594 164 -842 318 -455 282 -807 810 -916 1374 -11 58
-20 111 -20 118 0 10 98 14 473 19 262 4 488 11 508 17 42 12 106 71 125 117
44 102 -27 237 -136 262 -27 6 -226 11 -507 11 l-463 0 0 21 c0 12 11 76 25
143 108 535 433 1032 860 1315 256 170 561 298 821 345 100 18 106 17 116 -19z
m-2222 -2287 c101 -626 326 -1071 746 -1478 187 -181 352 -302 564 -413 243
-127 493 -206 880 -275 l45 -8 3 -469 c1 -259 0 -475 -2 -481 -9 -22 -364 34
-620 98 -602 150 -1125 442 -1560 867 -270 266 -461 523 -640 862 -191 364
-296 700 -366 1174 -11 77 -23 152 -26 168 l-6 27 485 0 485 0 12 -72z m5843
-40 c-69 -587 -248 -1091 -551 -1553 -263 -401 -556 -696 -952 -960 -460 -307
-995 -499 -1578 -568 l-112 -14 2 480 3 481 156 31 c434 89 690 190 982 386
279 186 503 411 690 691 191 286 291 539 377 959 17 84 33 160 35 167 4 9 109
12 483 12 l478 0 -13 -112z"/>
</g>
</svg>
